<svg id="Grupo_1111813" data-name="Grupo 1111813" xmlns="http://www.w3.org/2000/svg" width="37.344" height="31.953" viewBox="0 0 37.344 31.953">
  <g id="Grupo_78347" data-name="Grupo 78347">
    <path id="Trazado_99257" data-name="Trazado 99257" d="M416.18,103.718a.984.984,0,1,1-.983-.939A.962.962,0,0,1,416.18,103.718Z" transform="translate(-414.214 -102.779)" fill="#59836b"/>
    <path id="Trazado_99258" data-name="Trazado 99258" d="M424.625,103.718a.984.984,0,1,1-.982-.939A.962.962,0,0,1,424.625,103.718Z" transform="translate(-413.816 -102.779)" fill="#59836b"/>
    <path id="Trazado_99259" data-name="Trazado 99259" d="M433.072,103.718a.984.984,0,1,1-.982-.939A.962.962,0,0,1,433.072,103.718Z" transform="translate(-413.417 -102.779)" fill="#59836b"/>
    <path id="Trazado_99260" data-name="Trazado 99260" d="M441.519,103.718a.984.984,0,1,1-.983-.939A.962.962,0,0,1,441.519,103.718Z" transform="translate(-413.019 -102.779)" fill="#59836b"/>
    <path id="Trazado_99261" data-name="Trazado 99261" d="M449.965,103.718a.984.984,0,1,1-.982-.939A.962.962,0,0,1,449.965,103.718Z" transform="translate(-412.621 -102.779)" fill="#59836b"/>
    <ellipse id="Elipse_3975" data-name="Elipse 3975" cx="0.983" cy="0.94" rx="0.983" ry="0.94" transform="translate(0 7.518)" fill="#59836b"/>
    <path id="Trazado_99268" data-name="Trazado 99268" d="M424.625,111.226a.984.984,0,1,1-.982-.939A.962.962,0,0,1,424.625,111.226Z" transform="translate(-413.816 -102.768)" fill="#59836b"/>
    <ellipse id="Elipse_3976" data-name="Elipse 3976" cx="0.983" cy="0.94" rx="0.983" ry="0.94" transform="translate(17.689 7.518)" fill="#59836b"/>
    <path id="Trazado_99269" data-name="Trazado 99269" d="M441.519,111.226a.984.984,0,1,1-.983-.939A.963.963,0,0,1,441.519,111.226Z" transform="translate(-413.019 -102.768)" fill="#59836b"/>
    <path id="Trazado_99270" data-name="Trazado 99270" d="M449.965,111.226a.984.984,0,1,1-.982-.939A.962.962,0,0,1,449.965,111.226Z" transform="translate(-412.621 -102.768)" fill="#59836b"/>
    <path id="Trazado_99274" data-name="Trazado 99274" d="M416.18,118.734a.984.984,0,1,1-.983-.94A.963.963,0,0,1,416.18,118.734Z" transform="translate(-414.214 -102.758)" fill="#59836b"/>
    <path id="Trazado_99275" data-name="Trazado 99275" d="M424.625,118.734a.984.984,0,1,1-.982-.94A.962.962,0,0,1,424.625,118.734Z" transform="translate(-413.816 -102.758)" fill="#59836b"/>
    <path id="Trazado_99276" data-name="Trazado 99276" d="M433.072,118.734a.984.984,0,1,1-.982-.94A.962.962,0,0,1,433.072,118.734Z" transform="translate(-413.417 -102.758)" fill="#59836b"/>
    <path id="Trazado_99277" data-name="Trazado 99277" d="M441.519,118.734a.984.984,0,1,1-.983-.94A.963.963,0,0,1,441.519,118.734Z" transform="translate(-413.019 -102.758)" fill="#59836b"/>
    <path id="Trazado_99278" data-name="Trazado 99278" d="M449.965,118.734a.984.984,0,1,1-.982-.94A.962.962,0,0,1,449.965,118.734Z" transform="translate(-412.621 -102.758)" fill="#59836b"/>
    <ellipse id="Elipse_3980" data-name="Elipse 3980" cx="0.983" cy="0.94" rx="0.983" ry="0.94" transform="translate(0 22.555)" fill="#59836b"/>
    <path id="Trazado_99285" data-name="Trazado 99285" d="M424.625,126.242a.984.984,0,1,1-.982-.94A.961.961,0,0,1,424.625,126.242Z" transform="translate(-413.816 -102.747)" fill="#59836b"/>
    <ellipse id="Elipse_3981" data-name="Elipse 3981" cx="0.983" cy="0.94" rx="0.983" ry="0.94" transform="translate(17.689 22.555)" fill="#59836b"/>
    <path id="Trazado_99286" data-name="Trazado 99286" d="M441.519,126.242a.984.984,0,1,1-.983-.94A.962.962,0,0,1,441.519,126.242Z" transform="translate(-413.019 -102.747)" fill="#59836b"/>
    <path id="Trazado_99287" data-name="Trazado 99287" d="M449.965,126.242a.984.984,0,1,1-.982-.94A.962.962,0,0,1,449.965,126.242Z" transform="translate(-412.621 -102.747)" fill="#59836b"/>
    <ellipse id="Elipse_3985" data-name="Elipse 3985" cx="0.983" cy="0.94" rx="0.983" ry="0.94" transform="translate(0 30.073)" fill="#59836b"/>
    <path id="Trazado_99291" data-name="Trazado 99291" d="M424.625,133.75a.984.984,0,1,1-.982-.94A.961.961,0,0,1,424.625,133.75Z" transform="translate(-413.816 -102.737)" fill="#59836b"/>
    <ellipse id="Elipse_3986" data-name="Elipse 3986" cx="0.983" cy="0.94" rx="0.983" ry="0.94" transform="translate(17.689 30.073)" fill="#59836b"/>
    <path id="Trazado_99292" data-name="Trazado 99292" d="M441.519,133.75a.984.984,0,1,1-.983-.94A.962.962,0,0,1,441.519,133.75Z" transform="translate(-413.019 -102.737)" fill="#59836b"/>
    <path id="Trazado_99293" data-name="Trazado 99293" d="M449.965,133.75a.984.984,0,1,1-.982-.94A.962.962,0,0,1,449.965,133.75Z" transform="translate(-412.621 -102.737)" fill="#59836b"/>
  </g>
</svg>
