<svg xmlns="http://www.w3.org/2000/svg" xmlns:xlink="http://www.w3.org/1999/xlink" width="534" height="470" viewBox="0 0 534 470">
  <defs>
    <filter id="Trazado_882283" x="46" y="230" width="197" height="135" filterUnits="userSpaceOnUse">
      <feOffset dy="3" input="SourceAlpha"/>
      <feGaussianBlur stdDeviation="3" result="blur"/>
      <feFlood flood-opacity="0.161"/>
      <feComposite operator="in" in2="blur"/>
      <feComposite in="SourceGraphic"/>
    </filter>
    <filter id="Trazado_882285" x="46" y="357" width="197" height="113" filterUnits="userSpaceOnUse">
      <feOffset dy="3" input="SourceAlpha"/>
      <feGaussianBlur stdDeviation="3" result="blur-2"/>
      <feFlood flood-opacity="0.161"/>
      <feComposite operator="in" in2="blur-2"/>
      <feComposite in="SourceGraphic"/>
    </filter>
    <filter id="Trazado_882287" x="46" y="103" width="197" height="135" filterUnits="userSpaceOnUse">
      <feOffset dy="3" input="SourceAlpha"/>
      <feGaussianBlur stdDeviation="3" result="blur-3"/>
      <feFlood flood-opacity="0.161"/>
      <feComposite operator="in" in2="blur-3"/>
      <feComposite in="SourceGraphic"/>
    </filter>
    <filter id="Trazado_879930" x="1" y="56" width="63" height="370.939" filterUnits="userSpaceOnUse">
      <feOffset dy="3" input="SourceAlpha"/>
      <feGaussianBlur stdDeviation="3" result="blur-4"/>
      <feFlood flood-opacity="0.161"/>
      <feComposite operator="in" in2="blur-4"/>
      <feComposite in="SourceGraphic"/>
    </filter>
    <filter id="Trazado_882288" x="0" y="0" width="144" height="106" filterUnits="userSpaceOnUse">
      <feOffset dy="3" input="SourceAlpha"/>
      <feGaussianBlur stdDeviation="3" result="blur-5"/>
      <feFlood flood-opacity="0.161"/>
      <feComposite operator="in" in2="blur-5"/>
      <feComposite in="SourceGraphic"/>
    </filter>
    <filter id="Trazado_882288-2" x="0" y="0" width="144" height="106" filterUnits="userSpaceOnUse">
      <feOffset dy="3" input="SourceAlpha"/>
      <feGaussianBlur stdDeviation="3" result="blur-6"/>
      <feFlood flood-opacity="0.161" result="color"/>
      <feComposite operator="out" in="SourceGraphic" in2="blur-6"/>
      <feComposite operator="in" in="color"/>
      <feComposite operator="in" in2="SourceGraphic"/>
    </filter>
    <filter id="Trazado_879931" x="3" y="160.766" width="61.086" height="22" filterUnits="userSpaceOnUse">
      <feOffset dy="3" input="SourceAlpha"/>
      <feGaussianBlur stdDeviation="3" result="blur-7"/>
      <feFlood flood-opacity="0.161"/>
      <feComposite operator="in" in2="blur-7"/>
      <feComposite in="SourceGraphic"/>
    </filter>
    <filter id="Trazado_879932" x="3" y="293.375" width="61.086" height="22" filterUnits="userSpaceOnUse">
      <feOffset dy="3" input="SourceAlpha"/>
      <feGaussianBlur stdDeviation="3" result="blur-8"/>
      <feFlood flood-opacity="0.161"/>
      <feComposite operator="in" in2="blur-8"/>
      <feComposite in="SourceGraphic"/>
    </filter>
    <filter id="Trazado_879933" x="293" y="56" width="63" height="370.939" filterUnits="userSpaceOnUse">
      <feOffset dy="3" input="SourceAlpha"/>
      <feGaussianBlur stdDeviation="3" result="blur-9"/>
      <feFlood flood-opacity="0.161"/>
      <feComposite operator="in" in2="blur-9"/>
      <feComposite in="SourceGraphic"/>
    </filter>
    <filter id="Trazado_879934" x="295" y="160.766" width="61.086" height="22" filterUnits="userSpaceOnUse">
      <feOffset dy="3" input="SourceAlpha"/>
      <feGaussianBlur stdDeviation="3" result="blur-10"/>
      <feFlood flood-opacity="0.161"/>
      <feComposite operator="in" in2="blur-10"/>
      <feComposite in="SourceGraphic"/>
    </filter>
    <filter id="Trazado_879935" x="295" y="293.375" width="61.086" height="22" filterUnits="userSpaceOnUse">
      <feOffset dy="3" input="SourceAlpha"/>
      <feGaussianBlur stdDeviation="3" result="blur-11"/>
      <feFlood flood-opacity="0.161"/>
      <feComposite operator="in" in2="blur-11"/>
      <feComposite in="SourceGraphic"/>
    </filter>
    <filter id="Trazado_882291" x="337" y="230" width="197" height="135" filterUnits="userSpaceOnUse">
      <feOffset dy="3" input="SourceAlpha"/>
      <feGaussianBlur stdDeviation="3" result="blur-12"/>
      <feFlood flood-opacity="0.161"/>
      <feComposite operator="in" in2="blur-12"/>
      <feComposite in="SourceGraphic"/>
    </filter>
    <filter id="Trazado_882293" x="337" y="103" width="197" height="135" filterUnits="userSpaceOnUse">
      <feOffset dy="3" input="SourceAlpha"/>
      <feGaussianBlur stdDeviation="3" result="blur-13"/>
      <feFlood flood-opacity="0.161"/>
      <feComposite operator="in" in2="blur-13"/>
      <feComposite in="SourceGraphic"/>
    </filter>
    <filter id="Trazado_882295" x="337" y="357" width="197" height="113" filterUnits="userSpaceOnUse">
      <feOffset dy="3" input="SourceAlpha"/>
      <feGaussianBlur stdDeviation="3" result="blur-14"/>
      <feFlood flood-opacity="0.161"/>
      <feComposite operator="in" in2="blur-14"/>
      <feComposite in="SourceGraphic"/>
    </filter>
    <filter id="Trazado_882296" x="292" y="0" width="144" height="106" filterUnits="userSpaceOnUse">
      <feOffset dy="3" input="SourceAlpha"/>
      <feGaussianBlur stdDeviation="3" result="blur-15"/>
      <feFlood flood-opacity="0.161"/>
      <feComposite operator="in" in2="blur-15"/>
      <feComposite in="SourceGraphic"/>
    </filter>
    <filter id="Trazado_882296-2" x="292" y="0" width="144" height="106" filterUnits="userSpaceOnUse">
      <feOffset dy="3" input="SourceAlpha"/>
      <feGaussianBlur stdDeviation="3" result="blur-16"/>
      <feFlood flood-opacity="0.161" result="color-2"/>
      <feComposite operator="out" in="SourceGraphic" in2="blur-16"/>
      <feComposite operator="in" in="color-2"/>
      <feComposite operator="in" in2="SourceGraphic"/>
    </filter>
  </defs>
  <g id="Grupo_1111878" data-name="Grupo 1111878" transform="translate(-529.033 -2579)">
    <path id="Trazado_882282" data-name="Trazado 882282" d="M9.617,0H7.336L3.891-7.672l-.047.008L2.7,0H.422l1.7-11.375H4.406L7.844-3.711l.047-.008,1.148-7.656H11.32Zm7.289-1.211A3.366,3.366,0,0,1,15.766-.187,3.044,3.044,0,0,1,14.3.164a2.2,2.2,0,0,1-1.93-.914,3.9,3.9,0,0,1-.359-2.8l.734-4.9h2.273l-.734,4.914A2.589,2.589,0,0,0,14.355-2a.945.945,0,0,0,.879.391,2.351,2.351,0,0,0,.957-.187,2.046,2.046,0,0,0,.73-.539l.914-6.117h2.281L18.852,0H16.961Zm6.984-6.172a3.39,3.39,0,0,1,1.152-.91,3.345,3.345,0,0,1,1.465-.316,2.279,2.279,0,0,1,1.3.359,1.814,1.814,0,0,1,.73,1.078,3.53,3.53,0,0,1,1.176-1.062,3.155,3.155,0,0,1,1.543-.375,2.057,2.057,0,0,1,1.82.895,3.791,3.791,0,0,1,.336,2.7L32.664,0H30.383l.75-5.023a2.267,2.267,0,0,0-.09-1.434.968.968,0,0,0-.879-.379,1.705,1.705,0,0,0-.859.223A2.116,2.116,0,0,0,28.633-6q-.008.109-.02.219t-.027.227L27.75,0H25.477l.75-5.023a2.225,2.225,0,0,0-.094-1.422.966.966,0,0,0-.883-.391,1.858,1.858,0,0,0-.828.184,1.994,1.994,0,0,0-.656.52L22.844,0H20.57l1.266-8.453h2.117Zm18.75,3.391A5.621,5.621,0,0,1,41.32-.941,3.381,3.381,0,0,1,38.727.164,2.325,2.325,0,0,1,37.6-.1a2.075,2.075,0,0,1-.785-.762L36.2,3.25H33.93l1.75-11.7h2.055l-.016,1a3.318,3.318,0,0,1,1.031-.859,2.716,2.716,0,0,1,1.273-.3,2.38,2.38,0,0,1,2.219,1.238,4.93,4.93,0,0,1,.422,3.215Zm-2.258-.164a3.9,3.9,0,0,0-.105-1.953,1.089,1.089,0,0,0-1.113-.727,1.81,1.81,0,0,0-.9.223,2.026,2.026,0,0,0-.68.629l-.555,3.656a1.116,1.116,0,0,0,.492.555,1.769,1.769,0,0,0,.867.188,1.558,1.558,0,0,0,1.3-.656,3.829,3.829,0,0,0,.672-1.75Zm6.555.609.016.461L47-3.078l2.43-5.375h2.453L47,1.266a5.432,5.432,0,0,1-1.207,1.527,2.871,2.871,0,0,1-1.949.621,2.773,2.773,0,0,1-.52-.047q-.246-.047-.582-.133l.516-1.664q.094.016.211.031a1.611,1.611,0,0,0,.211.016,1.4,1.4,0,0,0,.9-.285,2.344,2.344,0,0,0,.586-.684L45.523,0,43.789-8.453h2.453ZM26.945,21.07H22.656L21.2,24h-1.57l5.8-11.375h1.32L29.07,24H27.5ZM23.3,19.781h3.4L25.773,14.9l-.047-.008Zm12.3-2.875-.781-.047a1.9,1.9,0,0,0-1.062.3,2.49,2.49,0,0,0-.781.848L32.07,24H30.531L31.8,15.547h1.375l-.031,1.2a3.552,3.552,0,0,1,1.031-1,2.384,2.384,0,0,1,1.273-.355,1.923,1.923,0,0,1,.324.027,1.787,1.787,0,0,1,.254.059Zm5.6,0-.781-.047a1.9,1.9,0,0,0-1.062.3,2.49,2.49,0,0,0-.781.848L37.672,24H36.133L37.4,15.547h1.375l-.031,1.2a3.552,3.552,0,0,1,1.031-1,2.384,2.384,0,0,1,1.273-.355,1.923,1.923,0,0,1,.324.027,1.787,1.787,0,0,1,.254.059ZM46.93,24q-.016-.437-.016-.707a4.987,4.987,0,0,1,.031-.551,4.564,4.564,0,0,1-1.277,1.012,3.193,3.193,0,0,1-1.543.41,2.41,2.41,0,0,1-1.887-.684,2.155,2.155,0,0,1-.434-1.855,2.584,2.584,0,0,1,1.25-1.914,5.194,5.194,0,0,1,2.773-.664H47.5l.125-.836a1.369,1.369,0,0,0-.27-1.191,1.593,1.593,0,0,0-1.223-.418,2.134,2.134,0,0,0-1.25.375,1.3,1.3,0,0,0-.609.9l-1.469.016-.008-.047a2.422,2.422,0,0,1,1.117-1.707,4.1,4.1,0,0,1,2.484-.746,3.053,3.053,0,0,1,2.172.738,2.258,2.258,0,0,1,.594,2.1l-.609,4.07a6.686,6.686,0,0,0-.09.887,4.511,4.511,0,0,0,.051.816Zm-2.383-1.125a3.032,3.032,0,0,0,1.547-.437,2.613,2.613,0,0,0,1.039-.984l.211-1.367H45.617a2.54,2.54,0,0,0-1.547.477,1.651,1.651,0,0,0-.734,1.094,1.011,1.011,0,0,0,.207.9A1.341,1.341,0,0,0,44.547,22.875Zm8.922-2.008.117,1.063.047.008,3.031-6.391h1.711L53.359,25.3a5.491,5.491,0,0,1-1.145,1.484,2.434,2.434,0,0,1-1.707.633,3.175,3.175,0,0,1-.461-.043q-.281-.043-.437-.082l.336-1.211a2.066,2.066,0,0,1,.285.016q.309.023.395.023a1.159,1.159,0,0,0,.871-.457,5.115,5.115,0,0,0,.668-.949l.508-.883-1.906-8.281h1.719Zm10.266.859a.908.908,0,0,0-.266-.836,3.27,3.27,0,0,0-1.391-.555,5.344,5.344,0,0,1-2.176-.9,1.562,1.562,0,0,1-.582-1.547A2.6,2.6,0,0,1,60.441,16.1a3.935,3.935,0,0,1,2.387-.711,3.006,3.006,0,0,1,2.188.789,1.943,1.943,0,0,1,.633,1.813l-.016.047H64.156a1.162,1.162,0,0,0-.336-1,1.515,1.515,0,0,0-1.156-.437,1.974,1.974,0,0,0-1.254.371,1.334,1.334,0,0,0-.543.871.821.821,0,0,0,.234.781,3.446,3.446,0,0,0,1.375.492,5.217,5.217,0,0,1,2.227.93,1.632,1.632,0,0,1,.586,1.57,2.62,2.62,0,0,1-1.164,1.855,4.265,4.265,0,0,1-2.484.691,3.283,3.283,0,0,1-2.395-.828,2.033,2.033,0,0,1-.652-1.906l.016-.047h1.477a1.245,1.245,0,0,0,.445,1.2,2.1,2.1,0,0,0,1.281.379,2.3,2.3,0,0,0,1.313-.352A1.3,1.3,0,0,0,63.734,21.727ZM29.9,43.328a4.853,4.853,0,0,1-1.293,3.461,4.4,4.4,0,0,1-3.355,1.375,4.167,4.167,0,0,1-3.238-1.375,4.959,4.959,0,0,1-1.246-3.461V41.3a4.977,4.977,0,0,1,1.246-3.461,4.156,4.156,0,0,1,3.238-1.383,4.39,4.39,0,0,1,3.355,1.379A4.867,4.867,0,0,1,29.9,41.3Zm-1.539-2.039a3.837,3.837,0,0,0-.844-2.562,2.813,2.813,0,0,0-2.266-1,2.606,2.606,0,0,0-2.145,1,3.972,3.972,0,0,0-.8,2.563v2.039a4,4,0,0,0,.8,2.578,2.606,2.606,0,0,0,2.145,1,2.815,2.815,0,0,0,2.27-1,3.869,3.869,0,0,0,.84-2.582Zm10.75,2.8a4.659,4.659,0,0,1-.875,2.949,2.893,2.893,0,0,1-2.414,1.121,3.354,3.354,0,0,1-1.371-.262,2.622,2.622,0,0,1-1-.785V51.25H31.906v-11.7h1.18l.242,1.094a2.792,2.792,0,0,1,1.031-.93,3.078,3.078,0,0,1,1.438-.32,2.809,2.809,0,0,1,2.441,1.246,5.638,5.638,0,0,1,.871,3.293ZM37.57,43.93A4.467,4.467,0,0,0,37,41.566a1.835,1.835,0,0,0-1.668-.926,2.054,2.054,0,0,0-1.133.3,2.25,2.25,0,0,0-.758.824v4.086a2.186,2.186,0,0,0,.758.816,2.126,2.126,0,0,0,1.148.293,1.894,1.894,0,0,0,1.656-.8,3.516,3.516,0,0,0,.563-2.066Zm6.93,4.234A3.576,3.576,0,0,1,41.66,47a4.48,4.48,0,0,1-1.02-3.062v-.344a4.386,4.386,0,0,1,1.051-3.012,3.3,3.3,0,0,1,2.566-1.191A3.067,3.067,0,0,1,46.8,40.445a4.345,4.345,0,0,1,.848,2.8v.813H42.242l-.023.039a3.494,3.494,0,0,0,.563,2.066,1.965,1.965,0,0,0,1.719.793,3.872,3.872,0,0,0,1.371-.223,3.061,3.061,0,0,0,1.012-.613l.6,1a3.7,3.7,0,0,1-1.2.738A4.762,4.762,0,0,1,44.5,48.164ZM44.258,40.6a1.673,1.673,0,0,0-1.332.621,2.938,2.938,0,0,0-.645,1.59l.016.039h3.813v-.125a2.462,2.462,0,0,0-.453-1.523A1.638,1.638,0,0,0,44.258,40.6Zm9.117.3-.789-.047a1.762,1.762,0,0,0-1.027.289,1.855,1.855,0,0,0-.645.813V48H49.375V39.547H50.75l.148,1.234a2.934,2.934,0,0,1,.887-1.023A2.073,2.073,0,0,1,53,39.391a1.9,1.9,0,0,1,.328.027,2.175,2.175,0,0,1,.258.059ZM60.172,48q-.078-.383-.121-.676a4.96,4.96,0,0,1-.051-.59,3.589,3.589,0,0,1-1.121,1.02,2.867,2.867,0,0,1-1.488.41,2.763,2.763,0,0,1-2.012-.676,2.486,2.486,0,0,1-.691-1.863,2.183,2.183,0,0,1,.98-1.895,4.579,4.579,0,0,1,2.66-.684H60v-.836a1.551,1.551,0,0,0-.453-1.176,1.779,1.779,0,0,0-1.281-.434,1.859,1.859,0,0,0-1.211.375,1.125,1.125,0,0,0-.461.9l-1.461.016-.016-.047a2.023,2.023,0,0,1,.863-1.687,3.578,3.578,0,0,1,2.371-.766,3.49,3.49,0,0,1,2.313.73,2.588,2.588,0,0,1,.875,2.105V46.3a7.923,7.923,0,0,0,.047.875,4.5,4.5,0,0,0,.172.828Zm-2.555-1.125a2.739,2.739,0,0,0,1.508-.43A2.042,2.042,0,0,0,60,45.461V44.086H58.273a2.24,2.24,0,0,0-1.488.469,1.4,1.4,0,0,0-.559,1.1,1.159,1.159,0,0,0,.352.891A1.472,1.472,0,0,0,57.617,46.875Zm9.516.086a1.81,1.81,0,0,0,1.242-.473,1.494,1.494,0,0,0,.531-1.16H70.3l.023.047a2.428,2.428,0,0,1-.937,1.941,3.582,3.582,0,0,1-5-.363,4.674,4.674,0,0,1-.969-3.016v-.328a4.654,4.654,0,0,1,.973-3,3.317,3.317,0,0,1,2.746-1.215,3.189,3.189,0,0,1,2.316.875,2.775,2.775,0,0,1,.871,2.148l-.016.047h-1.4a1.865,1.865,0,0,0-.5-1.316,1.658,1.658,0,0,0-1.27-.543,1.777,1.777,0,0,0-1.652.879,4.114,4.114,0,0,0-.52,2.129v.328a4.192,4.192,0,0,0,.512,2.148A1.776,1.776,0,0,0,67.133,46.961ZM73.813,48H72.273V39.547h1.539Zm0-10.617H72.273v-1.57h1.539ZM75.82,43.7a4.654,4.654,0,0,1,1.016-3.09,3.764,3.764,0,0,1,5.535,0,4.639,4.639,0,0,1,1.02,3.094v.172a4.631,4.631,0,0,1-1.016,3.094,3.781,3.781,0,0,1-5.535,0,4.623,4.623,0,0,1-1.02-3.09Zm1.539.172a4.009,4.009,0,0,0,.566,2.219,2.046,2.046,0,0,0,3.355,0,3.988,3.988,0,0,0,.57-2.219V43.7a3.976,3.976,0,0,0-.574-2.211,1.882,1.882,0,0,0-1.684-.883,1.856,1.856,0,0,0-1.668.883,4.018,4.018,0,0,0-.566,2.211Zm9.289-4.32.109,1.258a3.069,3.069,0,0,1,1.059-1.043,2.824,2.824,0,0,1,1.449-.371,2.759,2.759,0,0,1,2.117.8,3.515,3.515,0,0,1,.75,2.473V48H90.594V42.7a2.287,2.287,0,0,0-.441-1.586,1.768,1.768,0,0,0-1.348-.469,2.386,2.386,0,0,0-1.207.285,2.072,2.072,0,0,0-.785.8V48H85.273V39.547Zm11.219,8.617A3.576,3.576,0,0,1,95.027,47a4.48,4.48,0,0,1-1.02-3.062v-.344a4.386,4.386,0,0,1,1.051-3.012,3.3,3.3,0,0,1,2.566-1.191,3.067,3.067,0,0,1,2.543,1.055,4.345,4.345,0,0,1,.848,2.8v.813H95.609l-.023.039a3.494,3.494,0,0,0,.563,2.066,1.965,1.965,0,0,0,1.719.793,3.872,3.872,0,0,0,1.371-.223,3.061,3.061,0,0,0,1.012-.613l.6,1a3.7,3.7,0,0,1-1.2.738A4.762,4.762,0,0,1,97.867,48.164ZM97.625,40.6a1.673,1.673,0,0,0-1.332.621,2.938,2.938,0,0,0-.645,1.59l.016.039h3.813v-.125a2.462,2.462,0,0,0-.453-1.523A1.638,1.638,0,0,0,97.625,40.6Zm10.031,5.125a1.026,1.026,0,0,0-.387-.828,3.732,3.732,0,0,0-1.465-.562,6.146,6.146,0,0,1-2.293-.9,1.814,1.814,0,0,1-.8-1.547,2.229,2.229,0,0,1,.879-1.766,3.879,3.879,0,0,1,4.605.047,2.239,2.239,0,0,1,.852,1.82l-.016.047h-1.469a1.331,1.331,0,0,0-.48-.992,1.717,1.717,0,0,0-1.215-.445,1.751,1.751,0,0,0-1.215.367,1.146,1.146,0,0,0-.4.875.927.927,0,0,0,.348.773,3.848,3.848,0,0,0,1.434.5,6.058,6.058,0,0,1,2.359.93,1.872,1.872,0,0,1,.8,1.57,2.226,2.226,0,0,1-.91,1.836,3.754,3.754,0,0,1-2.379.711,3.715,3.715,0,0,1-2.547-.82,2.341,2.341,0,0,1-.883-1.914l.016-.047h1.469a1.424,1.424,0,0,0,.609,1.2,2.358,2.358,0,0,0,1.336.379,2.1,2.1,0,0,0,1.285-.348A1.063,1.063,0,0,0,107.656,45.727Z" transform="translate(605.033 2855.838)" fill="#12263f"/>
    <g transform="matrix(1, 0, 0, 1, 529.03, 2579)" filter="url(#Trazado_882283)">
      <g id="Trazado_882283-2" data-name="Trazado 882283" transform="translate(55 236)" fill="none">
        <path d="M29,0H150a29,29,0,0,1,29,29V88a29,29,0,0,1-29,29H29A29,29,0,0,1,0,88V29A29,29,0,0,1,29,0Z" stroke="none"/>
        <path d="M 29 3 C 25.48869323730469 3 22.08403015136719 3.687026977539062 18.88055419921875 5.041976928710938 C 15.78482055664062 6.351348876953125 13.00398254394531 8.226448059082031 10.61521911621094 10.61522674560547 C 8.226455688476562 13.00399780273438 6.351348876953125 15.78485107421875 5.041976928710938 18.88054656982422 C 3.687026977539062 22.08402252197266 3 25.48870086669922 3 29 L 3 88 C 3 91.51129913330078 3.687026977539062 94.91597747802734 5.041976928710938 98.11944580078125 C 6.351348876953125 101.2151489257812 8.226455688476562 103.9960021972656 10.61521911621094 106.3847732543945 C 13.00398254394531 108.773551940918 15.78482055664062 110.6486511230469 18.88055419921875 111.9580230712891 C 22.08403015136719 113.3129730224609 25.48869323730469 114 29 114 L 150 114 C 153.5112915039062 114 156.9159698486328 113.3129730224609 160.1194458007812 111.9580230712891 C 163.2151794433594 110.6486511230469 165.9960327148438 108.773551940918 168.3847808837891 106.3847732543945 C 170.7735443115234 103.9960021972656 172.6486511230469 101.2151489257812 173.9580230712891 98.11944580078125 C 175.3129730224609 94.91597747802734 176 91.51129913330078 176 88 L 176 29 C 176 25.48870086669922 175.3129730224609 22.08402252197266 173.9580230712891 18.88054656982422 C 172.6486511230469 15.78485107421875 170.7735443115234 13.00399780273438 168.3847808837891 10.61522674560547 C 165.9960327148438 8.226448059082031 163.2151794433594 6.351348876953125 160.1194458007812 5.041976928710938 C 156.9159698486328 3.687026977539062 153.5112915039062 3 150 3 L 29 3 M 29 0 L 150 0 C 166.0162811279297 0 179 12.98374938964844 179 29 L 179 88 C 179 104.0162506103516 166.0162811279297 117 150 117 L 29 117 C 12.98371887207031 117 0 104.0162506103516 0 88 L 0 29 C 0 12.98374938964844 12.98371887207031 0 29 0 Z" stroke="none" fill="#f0f9fb"/>
      </g>
    </g>
    <path id="Trazado_879918" data-name="Trazado 879918" d="M4281.747,1899.406a5.615,5.615,0,1,0-5.616,5.772A5.6,5.6,0,0,0,4281.747,1899.406Zm-2.128-1c-.246.252-.5.5-.747.748-.152.152-.308.3-.462.452a.215.215,0,0,1-.081.082,8.47,8.47,0,0,1-.607.6.036.036,0,0,1-.021.009.15.15,0,0,1-.107.108.038.038,0,0,1-.009.021h0a8.4,8.4,0,0,1-.6.607h0a.167.167,0,0,1-.1.087.035.035,0,0,1-.009.021h0a7.8,7.8,0,0,1-.63.63l-.084.084a9.609,9.609,0,0,1-.69.7c-.161.151-.38.107-.55-.085a1.508,1.508,0,0,1-.236-.236h0l-.478-.479a1.641,1.641,0,0,1-.237-.237h0l-.505-.5a1.315,1.315,0,0,1-.21-.209l-.026-.027h0l-.478-.479-.026-.027c-.279-.236-.279-.453,0-.689l.026-.027a3.09,3.09,0,0,1,.476-.455c.012-.024.034-.021.055-.018a.4.4,0,0,1,.424.134c.089.1.182.189.273.283l1.108,1.1c.139.138.139.139.285.017l.371-.371h0a3.461,3.461,0,0,1,.37-.37l.318-.318.027-.026h0l.4-.4h0l.319-.316a3.9,3.9,0,0,1,.372-.371,3.809,3.809,0,0,1,.37-.37,3.949,3.949,0,0,1,.37-.371c.12-.123.235-.251.36-.367a.353.353,0,0,1,.491.008c.175.167.347.338.514.513A.351.351,0,0,1,4279.619,1898.41Z" transform="translate(-3665.487 999.197)" fill="#c6e9f3"/>
    <path id="Trazado_879919" data-name="Trazado 879919" d="M4281.747,1899.406a5.615,5.615,0,1,0-5.616,5.772A5.6,5.6,0,0,0,4281.747,1899.406Zm-2.128-1c-.246.252-.5.5-.747.748-.152.152-.308.3-.462.452a.215.215,0,0,1-.081.082,8.47,8.47,0,0,1-.607.6.036.036,0,0,1-.021.009.15.15,0,0,1-.107.108.038.038,0,0,1-.009.021h0a8.4,8.4,0,0,1-.6.607h0a.167.167,0,0,1-.1.087.035.035,0,0,1-.009.021h0a7.8,7.8,0,0,1-.63.63l-.084.084a9.609,9.609,0,0,1-.69.7c-.161.151-.38.107-.55-.085a1.508,1.508,0,0,1-.236-.236h0l-.478-.479a1.641,1.641,0,0,1-.237-.237h0l-.505-.5a1.315,1.315,0,0,1-.21-.209l-.026-.027h0l-.478-.479-.026-.027c-.279-.236-.279-.453,0-.689l.026-.027a3.09,3.09,0,0,1,.476-.455c.012-.024.034-.021.055-.018a.4.4,0,0,1,.424.134c.089.1.182.189.273.283l1.108,1.1c.139.138.139.139.285.017l.371-.371h0a3.461,3.461,0,0,1,.37-.37l.318-.318.027-.026h0l.4-.4h0l.319-.316a3.9,3.9,0,0,1,.372-.371,3.809,3.809,0,0,1,.37-.37,3.949,3.949,0,0,1,.37-.371c.12-.123.235-.251.36-.367a.353.353,0,0,1,.491.008c.175.167.347.338.514.513A.351.351,0,0,1,4279.619,1898.41Z" transform="translate(-3665.487 975.197)" fill="#c6e9f3"/>
    <path id="Trazado_882284" data-name="Trazado 882284" d="M6.969-2.758a1.236,1.236,0,0,0-.336-1.16,5.284,5.284,0,0,0-1.687-.855,7.56,7.56,0,0,1-2.895-1.5,2.477,2.477,0,0,1-.723-2.32,3.009,3.009,0,0,1,1.406-2.16,5.231,5.231,0,0,1,2.922-.785,4.423,4.423,0,0,1,2.984.93,2.563,2.563,0,0,1,.8,2.555l-.016.047H7.211a1.417,1.417,0,0,0-.395-1.281,1.955,1.955,0,0,0-1.426-.492A2.121,2.121,0,0,0,4.2-9.445a1.191,1.191,0,0,0-.582.836A1.115,1.115,0,0,0,3.969-7.5a7.077,7.077,0,0,0,1.93.875,6.668,6.668,0,0,1,2.707,1.48A2.647,2.647,0,0,1,9.25-2.773,2.992,2.992,0,0,1,7.836-.586a5.485,5.485,0,0,1-2.969.75A5.567,5.567,0,0,1,1.727-.684,2.388,2.388,0,0,1,.758-3.32l.016-.047H2.984A1.242,1.242,0,0,0,3.5-1.988a3.077,3.077,0,0,0,1.629.4,2.291,2.291,0,0,0,1.227-.332A1.2,1.2,0,0,0,6.969-2.758Zm6.883,1.172a1.467,1.467,0,0,0,.988-.359,1.519,1.519,0,0,0,.512-.945h2.07l.016.047a3.149,3.149,0,0,1-1.27,2.168,4.116,4.116,0,0,1-2.574.84A3.092,3.092,0,0,1,10.91-1.051a3.985,3.985,0,0,1-.6-3.051l.031-.234a5.322,5.322,0,0,1,1.477-3.1,4.185,4.185,0,0,1,3.07-1.172,3.036,3.036,0,0,1,2.332.9,2.6,2.6,0,0,1,.59,2.344l-.016.039H15.711a1.538,1.538,0,0,0-.176-1.1,1,1,0,0,0-.9-.426,1.555,1.555,0,0,0-1.348.719,4.247,4.247,0,0,0-.66,1.8l-.031.234a3.629,3.629,0,0,0,.086,1.84A1.119,1.119,0,0,0,13.852-1.586ZM20.734,0H18.453l1.266-8.453H22ZM22.3-10.477H20.023l.258-1.711h2.281ZM26-3.539h-.578L24.891,0H22.609l1.828-12.187h2.281L25.68-5.273h.508l2.5-3.18h2.586l.016.039L28-4.6,30.438,0H27.813ZM33.578,0H31.3l1.266-8.453h2.281Zm1.57-10.477H32.867l.258-1.711h2.281Zm4.617-.047-.312,2.07h1.43l-.234,1.6H39.211l-.641,4.3a.9.9,0,0,0,.094.715.644.644,0,0,0,.516.2,2.371,2.371,0,0,0,.316-.02,2.468,2.468,0,0,0,.316-.066L39.75-.07a5.086,5.086,0,0,1-.691.176,4.116,4.116,0,0,1-.715.059,2.108,2.108,0,0,1-1.7-.656A2.509,2.509,0,0,1,36.3-2.539l.641-4.312H35.711l.234-1.6H37.18l.313-2.07Zm6.727,6.539h-4.6l.258-1.758h4.6ZM50.391,0H48.109l1.828-12.187h2.281Zm5.516.164a3.285,3.285,0,0,1-2.742-1.176,3.672,3.672,0,0,1-.648-2.973l.047-.312a5.343,5.343,0,0,1,1.488-3.145,4.111,4.111,0,0,1,3.02-1.168A2.826,2.826,0,0,1,59.5-7.555a3.614,3.614,0,0,1,.52,2.8l-.172,1.18H54.8l-.016.039a1.983,1.983,0,0,0,.3,1.426,1.546,1.546,0,0,0,1.328.527,5.011,5.011,0,0,0,1.32-.16,6.029,6.029,0,0,0,1.188-.473L59.32-.812a5.183,5.183,0,0,1-1.484.7A6.475,6.475,0,0,1,55.906.164Zm.906-7.016a1.459,1.459,0,0,0-1.105.477,2.831,2.831,0,0,0-.652,1.242l.016.047h2.766l.023-.172a1.824,1.824,0,0,0-.121-1.18A.975.975,0,0,0,56.813-6.852ZM65.617,0a3.7,3.7,0,0,1-.125-.613,4.615,4.615,0,0,1-.031-.66A3.883,3.883,0,0,1,64.379-.242a2.609,2.609,0,0,1-1.434.406,2.5,2.5,0,0,1-1.922-.691,2.114,2.114,0,0,1-.461-1.855A2.637,2.637,0,0,1,61.8-4.332a5.433,5.433,0,0,1,2.906-.66h1.281l.1-.672a1.182,1.182,0,0,0-.176-.957A1.124,1.124,0,0,0,65-6.945a1.425,1.425,0,0,0-.887.27,1.063,1.063,0,0,0-.418.738H61.5l-.008-.047A2.573,2.573,0,0,1,62.7-7.852a4.614,4.614,0,0,1,2.7-.758,3.321,3.321,0,0,1,2.32.773,2.306,2.306,0,0,1,.641,2.188l-.523,3.492a6.259,6.259,0,0,0-.078,1.125A5.486,5.486,0,0,0,67.891,0ZM63.758-1.523a2.165,2.165,0,0,0,1.094-.3,2.036,2.036,0,0,0,.758-.691l.18-1.187H64.508a1.718,1.718,0,0,0-1.137.367,1.4,1.4,0,0,0-.52.875.762.762,0,0,0,.172.691A.989.989,0,0,0,63.758-1.523ZM74.648-6.492l-.836-.023a1.625,1.625,0,0,0-.859.223,1.789,1.789,0,0,0-.609.629L71.5,0H69.227l1.266-8.453h2.117l-.078,1.211a3.127,3.127,0,0,1,.914-1.012,2,2,0,0,1,1.148-.355,1.788,1.788,0,0,1,.316.027,2.705,2.705,0,0,1,.285.066Zm3.492-.8a3.623,3.623,0,0,1,1.18-.977,3.112,3.112,0,0,1,1.438-.344,2.153,2.153,0,0,1,1.852.836,3.482,3.482,0,0,1,.352,2.594L82.188,0H79.9l.773-5.172a1.9,1.9,0,0,0-.113-1.3,1.025,1.025,0,0,0-.9-.363,2.106,2.106,0,0,0-.918.2,2.2,2.2,0,0,0-.723.551L77.1,0H74.82l1.266-8.453h2.125ZM22.789,19.438V24H21.25V12.625H25.6a4.009,4.009,0,0,1,2.832.938,3.207,3.207,0,0,1,1.012,2.469,3.2,3.2,0,0,1-1.012,2.477,4.031,4.031,0,0,1-2.832.93Zm0-1.2H25.6a2.064,2.064,0,0,0,2.3-2.187,2.26,2.26,0,0,0-.574-1.578,2.21,2.21,0,0,0-1.723-.633H22.789Zm12.422-1.328-.789-.047a1.762,1.762,0,0,0-1.027.289,1.855,1.855,0,0,0-.645.813V24H31.211V15.547h1.375l.148,1.234a2.934,2.934,0,0,1,.887-1.023,2.073,2.073,0,0,1,1.215-.367,1.9,1.9,0,0,1,.328.027,2.175,2.175,0,0,1,.258.059Zm4.953,7.258A3.576,3.576,0,0,1,37.324,23a4.48,4.48,0,0,1-1.02-3.062v-.344a4.386,4.386,0,0,1,1.051-3.012,3.3,3.3,0,0,1,2.566-1.191,3.067,3.067,0,0,1,2.543,1.055,4.345,4.345,0,0,1,.848,2.8v.813H37.906l-.023.039a3.494,3.494,0,0,0,.563,2.066,1.965,1.965,0,0,0,1.719.793,3.872,3.872,0,0,0,1.371-.223,3.061,3.061,0,0,0,1.012-.613l.6,1a3.7,3.7,0,0,1-1.2.738A4.762,4.762,0,0,1,40.164,24.164ZM39.922,16.6a1.673,1.673,0,0,0-1.332.621,2.938,2.938,0,0,0-.645,1.59l.016.039h3.813v-.125A2.462,2.462,0,0,0,41.32,17.2,1.638,1.638,0,0,0,39.922,16.6Zm12.32,3.492a4.659,4.659,0,0,1-.875,2.949,2.893,2.893,0,0,1-2.414,1.121,3.354,3.354,0,0,1-1.371-.262,2.622,2.622,0,0,1-1-.785V27.25H45.039v-11.7h1.18l.242,1.094a2.792,2.792,0,0,1,1.031-.93,3.078,3.078,0,0,1,1.438-.32,2.809,2.809,0,0,1,2.441,1.246,5.637,5.637,0,0,1,.871,3.293ZM50.7,19.93a4.467,4.467,0,0,0-.566-2.363,1.835,1.835,0,0,0-1.668-.926,2.053,2.053,0,0,0-1.133.3,2.25,2.25,0,0,0-.758.824v4.086a2.186,2.186,0,0,0,.758.816,2.126,2.126,0,0,0,1.148.293,1.894,1.894,0,0,0,1.656-.8,3.516,3.516,0,0,0,.563-2.066Zm3.07-.234a4.654,4.654,0,0,1,1.016-3.09,3.764,3.764,0,0,1,5.535,0,4.639,4.639,0,0,1,1.02,3.094v.172a4.631,4.631,0,0,1-1.016,3.094,3.781,3.781,0,0,1-5.535,0,4.623,4.623,0,0,1-1.02-3.09Zm1.539.172a4.009,4.009,0,0,0,.566,2.219,2.046,2.046,0,0,0,3.355,0,3.988,3.988,0,0,0,.57-2.219V19.7a3.976,3.976,0,0,0-.574-2.211,1.882,1.882,0,0,0-1.684-.883,1.856,1.856,0,0,0-1.668.883,4.018,4.018,0,0,0-.566,2.211Zm11.273,3.094a1.81,1.81,0,0,0,1.242-.473,1.494,1.494,0,0,0,.531-1.16H69.75l.023.047a2.428,2.428,0,0,1-.937,1.941,3.582,3.582,0,0,1-5-.363,4.674,4.674,0,0,1-.969-3.016v-.328a4.654,4.654,0,0,1,.973-3,3.317,3.317,0,0,1,2.746-1.215,3.189,3.189,0,0,1,2.316.875,2.775,2.775,0,0,1,.871,2.148l-.016.047h-1.4a1.865,1.865,0,0,0-.5-1.316,1.658,1.658,0,0,0-1.27-.543,1.777,1.777,0,0,0-1.652.879,4.114,4.114,0,0,0-.52,2.129v.328a4.192,4.192,0,0,0,.512,2.148A1.776,1.776,0,0,0,66.586,22.961Zm8.516,1.2A3.576,3.576,0,0,1,72.262,23a4.48,4.48,0,0,1-1.02-3.062v-.344a4.386,4.386,0,0,1,1.051-3.012,3.3,3.3,0,0,1,2.566-1.191A3.067,3.067,0,0,1,77.4,16.445a4.345,4.345,0,0,1,.848,2.8v.813H72.844l-.023.039a3.494,3.494,0,0,0,.563,2.066,1.965,1.965,0,0,0,1.719.793,3.872,3.872,0,0,0,1.371-.223,3.061,3.061,0,0,0,1.012-.613l.6,1a3.7,3.7,0,0,1-1.2.738A4.762,4.762,0,0,1,75.1,24.164ZM74.859,16.6a1.673,1.673,0,0,0-1.332.621,2.938,2.938,0,0,0-.645,1.59l.016.039h3.813v-.125a2.462,2.462,0,0,0-.453-1.523A1.638,1.638,0,0,0,74.859,16.6Zm10.031,5.125A1.026,1.026,0,0,0,84.5,20.9a3.732,3.732,0,0,0-1.465-.562,6.146,6.146,0,0,1-2.293-.9,1.814,1.814,0,0,1-.8-1.547,2.229,2.229,0,0,1,.879-1.766,3.879,3.879,0,0,1,4.605.047,2.239,2.239,0,0,1,.852,1.82l-.016.047H84.8a1.331,1.331,0,0,0-.48-.992A1.717,1.717,0,0,0,83.1,16.6a1.751,1.751,0,0,0-1.215.367,1.146,1.146,0,0,0-.4.875.927.927,0,0,0,.348.773,3.848,3.848,0,0,0,1.434.5,6.058,6.058,0,0,1,2.359.93,1.872,1.872,0,0,1,.8,1.57,2.226,2.226,0,0,1-.91,1.836,3.754,3.754,0,0,1-2.379.711,3.715,3.715,0,0,1-2.547-.82,2.341,2.341,0,0,1-.883-1.914l.016-.047H81.2a1.424,1.424,0,0,0,.609,1.2,2.358,2.358,0,0,0,1.336.379,2.1,2.1,0,0,0,1.285-.348A1.063,1.063,0,0,0,84.891,21.727ZM93.539,24q-.078-.383-.121-.676a4.96,4.96,0,0,1-.051-.59,3.589,3.589,0,0,1-1.121,1.02,2.867,2.867,0,0,1-1.488.41,2.763,2.763,0,0,1-2.012-.676,2.486,2.486,0,0,1-.691-1.863,2.183,2.183,0,0,1,.98-1.895,4.579,4.579,0,0,1,2.66-.684h1.672v-.836a1.551,1.551,0,0,0-.453-1.176,1.779,1.779,0,0,0-1.281-.434,1.859,1.859,0,0,0-1.211.375,1.125,1.125,0,0,0-.461.9l-1.461.016-.016-.047a2.023,2.023,0,0,1,.863-1.687,3.578,3.578,0,0,1,2.371-.766,3.49,3.49,0,0,1,2.313.73,2.588,2.588,0,0,1,.875,2.105V22.3a7.923,7.923,0,0,0,.047.875,4.5,4.5,0,0,0,.172.828Zm-2.555-1.125a2.739,2.739,0,0,0,1.508-.43,2.042,2.042,0,0,0,.875-.984V20.086H91.641a2.24,2.24,0,0,0-1.488.469,1.4,1.4,0,0,0-.559,1.1,1.159,1.159,0,0,0,.352.891A1.472,1.472,0,0,0,90.984,22.875Zm7.531-7.328.109,1.109a2.871,2.871,0,0,1,1.051-.934,3.158,3.158,0,0,1,1.48-.332,2.615,2.615,0,0,1,1.449.391,2.363,2.363,0,0,1,.91,1.172,3.162,3.162,0,0,1,1.059-1.145,2.769,2.769,0,0,1,1.527-.418,2.531,2.531,0,0,1,2.039.887,4.051,4.051,0,0,1,.75,2.668V24h-1.539V18.93a2.81,2.81,0,0,0-.43-1.77,1.567,1.567,0,0,0-1.281-.52,1.631,1.631,0,0,0-1.277.547,2.381,2.381,0,0,0-.574,1.383V24h-1.547V18.93a2.772,2.772,0,0,0-.441-1.738,1.532,1.532,0,0,0-1.27-.551,2.115,2.115,0,0,0-1.156.289,1.867,1.867,0,0,0-.7.813V24H97.141V15.547ZM112.789,24H111.25V15.547h1.539Zm0-10.617H111.25v-1.57h1.539Zm5.867,10.781A3.576,3.576,0,0,1,115.816,23a4.48,4.48,0,0,1-1.02-3.062v-.344a4.386,4.386,0,0,1,1.051-3.012,3.3,3.3,0,0,1,2.566-1.191,3.067,3.067,0,0,1,2.543,1.055,4.345,4.345,0,0,1,.848,2.8v.813H116.4l-.023.039a3.494,3.494,0,0,0,.563,2.066,1.965,1.965,0,0,0,1.719.793,3.872,3.872,0,0,0,1.371-.223,3.061,3.061,0,0,0,1.012-.613l.6,1a3.7,3.7,0,0,1-1.2.738A4.762,4.762,0,0,1,118.656,24.164Zm-.242-7.562a1.673,1.673,0,0,0-1.332.621,2.938,2.938,0,0,0-.645,1.59l.016.039h3.813v-.125a2.462,2.462,0,0,0-.453-1.523A1.638,1.638,0,0,0,118.414,16.6Zm6.492-1.055.109,1.258a3.069,3.069,0,0,1,1.059-1.043,2.824,2.824,0,0,1,1.449-.371,2.759,2.759,0,0,1,2.117.8,3.515,3.515,0,0,1,.75,2.473V24h-1.539V18.7a2.287,2.287,0,0,0-.441-1.586,1.768,1.768,0,0,0-1.348-.469,2.386,2.386,0,0,0-1.207.285,2.072,2.072,0,0,0-.785.8V24h-1.539V15.547Zm9.859-2.039v2.039h1.6v1.141h-1.6V21.82a1.149,1.149,0,0,0,.246.836.89.89,0,0,0,.652.242,1.429,1.429,0,0,0,.3-.035,2.2,2.2,0,0,0,.273-.074l.211,1.055a1.36,1.36,0,0,1-.508.23,2.562,2.562,0,0,1-.664.09,1.993,1.993,0,0,1-1.492-.566,2.46,2.46,0,0,1-.555-1.777V16.688h-1.344V15.547h1.344V13.508Zm2.891,6.188a4.654,4.654,0,0,1,1.016-3.09,3.764,3.764,0,0,1,5.535,0,4.639,4.639,0,0,1,1.02,3.094v.172a4.631,4.631,0,0,1-1.016,3.094,3.781,3.781,0,0,1-5.535,0,4.623,4.623,0,0,1-1.02-3.09Zm1.539.172a4.009,4.009,0,0,0,.566,2.219,2.046,2.046,0,0,0,3.355,0,3.988,3.988,0,0,0,.57-2.219V19.7a3.976,3.976,0,0,0-.574-2.211,1.882,1.882,0,0,0-1.684-.883,1.856,1.856,0,0,0-1.668.883A4.018,4.018,0,0,0,139.2,19.7Z" transform="translate(605.033 2982.838)" fill="#12263f"/>
    <g transform="matrix(1, 0, 0, 1, 529.03, 2579)" filter="url(#Trazado_882285)">
      <g id="Trazado_882285-2" data-name="Trazado 882285" transform="translate(55 363)" fill="none">
        <path d="M29,0H150a29,29,0,0,1,29,29V66a29,29,0,0,1-29,29H29A29,29,0,0,1,0,66V29A29,29,0,0,1,29,0Z" stroke="none"/>
        <path d="M 29 3 C 25.48869323730469 3 22.08403015136719 3.687026977539062 18.88055419921875 5.041976928710938 C 15.78482055664062 6.351348876953125 13.00398254394531 8.226448059082031 10.61521911621094 10.61522674560547 C 8.226455688476562 13.00399780273438 6.351348876953125 15.78485107421875 5.041976928710938 18.88054656982422 C 3.687026977539062 22.08402252197266 3 25.48870086669922 3 29 L 3 66 C 3 69.51129913330078 3.687026977539062 72.91597747802734 5.041976928710938 76.11944580078125 C 6.351348876953125 79.21514892578125 8.226455688476562 81.99600219726562 10.61521911621094 84.38477325439453 C 13.00398254394531 86.77355194091797 15.78482055664062 88.64865112304688 18.88055419921875 89.95802307128906 C 22.08403015136719 91.31297302246094 25.48869323730469 92 29 92 L 150 92 C 153.5112915039062 92 156.9159698486328 91.31297302246094 160.1194458007812 89.95802307128906 C 163.2151794433594 88.64865112304688 165.9960327148438 86.77355194091797 168.3847808837891 84.38477325439453 C 170.7735443115234 81.99600219726562 172.6486511230469 79.21514892578125 173.9580230712891 76.11944580078125 C 175.3129730224609 72.91597747802734 176 69.51129913330078 176 66 L 176 29 C 176 25.48870086669922 175.3129730224609 22.08402252197266 173.9580230712891 18.88054656982422 C 172.6486511230469 15.78485107421875 170.7735443115234 13.00399780273438 168.3847808837891 10.61522674560547 C 165.9960327148438 8.226448059082031 163.2151794433594 6.351348876953125 160.1194458007812 5.041976928710938 C 156.9159698486328 3.687026977539062 153.5112915039062 3 150 3 L 29 3 M 29 0 L 150 0 C 166.0162811279297 0 179 12.98374938964844 179 29 L 179 66 C 179 82.01625061035156 166.0162811279297 95 150 95 L 29 95 C 12.98371887207031 95 0 82.01625061035156 0 66 L 0 29 C 0 12.98374938964844 12.98371887207031 0 29 0 Z" stroke="none" fill="#f0f9fb"/>
      </g>
    </g>
    <path id="Trazado_879923" data-name="Trazado 879923" d="M4281.747,1899.406a5.615,5.615,0,1,0-5.616,5.772A5.6,5.6,0,0,0,4281.747,1899.406Zm-2.128-1c-.246.252-.5.5-.747.748-.152.152-.308.3-.462.452a.215.215,0,0,1-.081.082,8.47,8.47,0,0,1-.607.6.036.036,0,0,1-.021.009.15.15,0,0,1-.107.108.038.038,0,0,1-.009.021h0a8.4,8.4,0,0,1-.6.607h0a.167.167,0,0,1-.1.087.035.035,0,0,1-.009.021h0a7.8,7.8,0,0,1-.63.63l-.084.084a9.609,9.609,0,0,1-.69.7c-.161.151-.38.107-.55-.085a1.508,1.508,0,0,1-.236-.236h0l-.478-.479a1.641,1.641,0,0,1-.237-.237h0l-.505-.5a1.315,1.315,0,0,1-.21-.209l-.026-.027h0l-.478-.479-.026-.027c-.279-.236-.279-.453,0-.689l.026-.027a3.09,3.09,0,0,1,.476-.455c.012-.024.034-.021.055-.018a.4.4,0,0,1,.424.134c.089.1.182.189.273.283l1.108,1.1c.139.138.139.139.285.017l.371-.371h0a3.461,3.461,0,0,1,.37-.37l.318-.318.027-.026h0l.4-.4h0l.319-.316a3.9,3.9,0,0,1,.372-.371,3.809,3.809,0,0,1,.37-.37,3.949,3.949,0,0,1,.37-.371c.12-.123.235-.251.36-.367a.353.353,0,0,1,.491.008c.175.167.347.338.514.513A.351.351,0,0,1,4279.619,1898.41Z" transform="translate(-3665.487 1102.197)" fill="#c6e9f3"/>
    <path id="Trazado_882286" data-name="Trazado 882286" d="M3.328-4.125V0H1.047V-11.375H5.4a4.48,4.48,0,0,1,3.086,1A3.353,3.353,0,0,1,9.609-7.742,3.329,3.329,0,0,1,8.484-5.117,4.5,4.5,0,0,1,5.4-4.125Zm0-1.758H5.4A1.9,1.9,0,0,0,6.844-6.4a1.848,1.848,0,0,0,.492-1.324,1.934,1.934,0,0,0-.488-1.355A1.864,1.864,0,0,0,5.4-9.617H3.328ZM15.969,0a4.8,4.8,0,0,1-.215-.609,4.239,4.239,0,0,1-.129-.656A3.127,3.127,0,0,1,14.7-.242,2.33,2.33,0,0,1,13.32.164,2.855,2.855,0,0,1,11.273-.52a2.449,2.449,0,0,1-.719-1.863,2.229,2.229,0,0,1,.957-1.926A4.78,4.78,0,0,1,14.3-4.992h1.281v-.672a1.315,1.315,0,0,0-.32-.945,1.257,1.257,0,0,0-.953-.336,1.239,1.239,0,0,0-.855.27.941.941,0,0,0-.3.738h-2.2l-.016-.047a2.144,2.144,0,0,1,.934-1.848,4.055,4.055,0,0,1,2.582-.777,3.784,3.784,0,0,1,2.465.766,2.667,2.667,0,0,1,.941,2.2v3.492a6.6,6.6,0,0,0,.09,1.117A5.606,5.606,0,0,0,18.242,0ZM13.883-1.523a1.944,1.944,0,0,0,1.063-.3,1.6,1.6,0,0,0,.641-.687V-3.7H14.3a1.519,1.519,0,0,0-1.1.359,1.181,1.181,0,0,0-.371.883.881.881,0,0,0,.277.684A1.1,1.1,0,0,0,13.883-1.523Zm7.781-6.93.1,1.211A3.092,3.092,0,0,1,22.8-8.25a2.7,2.7,0,0,1,1.383-.359,2.513,2.513,0,0,1,2,.824,3.908,3.908,0,0,1,.719,2.605V0H24.617V-5.172A2.024,2.024,0,0,0,24.3-6.457a1.166,1.166,0,0,0-.949-.379,1.992,1.992,0,0,0-.895.191,1.746,1.746,0,0,0-.637.527V0H19.539V-8.453Zm6.594,4.3a5.493,5.493,0,0,1,.863-3.227,2.8,2.8,0,0,1,2.434-1.227,2.367,2.367,0,0,1,1.141.273,2.744,2.744,0,0,1,.891.781v-4.633h2.289V0H33.93l-.2-1.039a2.826,2.826,0,0,1-.945.895,2.5,2.5,0,0,1-1.25.309A2.858,2.858,0,0,1,29.121-.977a4.871,4.871,0,0,1-.863-3.016Zm2.273.164a3.443,3.443,0,0,0,.375,1.746,1.306,1.306,0,0,0,1.219.637,1.775,1.775,0,0,0,.859-.2,1.589,1.589,0,0,0,.6-.582v-3.6a1.756,1.756,0,0,0-.6-.621,1.589,1.589,0,0,0-.848-.223,1.287,1.287,0,0,0-1.223.742,4.194,4.194,0,0,0-.387,1.938ZM42.625,0a4.8,4.8,0,0,1-.215-.609,4.239,4.239,0,0,1-.129-.656,3.127,3.127,0,0,1-.93,1.023,2.33,2.33,0,0,1-1.375.406A2.855,2.855,0,0,1,37.93-.52a2.449,2.449,0,0,1-.719-1.863,2.229,2.229,0,0,1,.957-1.926,4.78,4.78,0,0,1,2.793-.684h1.281v-.672a1.315,1.315,0,0,0-.32-.945,1.257,1.257,0,0,0-.953-.336,1.239,1.239,0,0,0-.855.27.941.941,0,0,0-.3.738h-2.2L37.6-5.984a2.144,2.144,0,0,1,.934-1.848,4.055,4.055,0,0,1,2.582-.777,3.784,3.784,0,0,1,2.465.766,2.667,2.667,0,0,1,.941,2.2v3.492a6.605,6.605,0,0,0,.09,1.117A5.606,5.606,0,0,0,44.9,0ZM40.539-1.523a1.944,1.944,0,0,0,1.063-.3,1.6,1.6,0,0,0,.641-.687V-3.7H40.961a1.519,1.519,0,0,0-1.1.359,1.181,1.181,0,0,0-.371.883.881.881,0,0,0,.277.684A1.1,1.1,0,0,0,40.539-1.523ZM50.8-2.344a.787.787,0,0,0-.363-.645,3.69,3.69,0,0,0-1.348-.473,5.375,5.375,0,0,1-2.254-.9,1.962,1.962,0,0,1-.77-1.633,2.329,2.329,0,0,1,.922-1.852,3.717,3.717,0,0,1,2.453-.766,4.011,4.011,0,0,1,2.566.766,2.237,2.237,0,0,1,.926,1.906l-.016.047h-2.2a1.106,1.106,0,0,0-.328-.828,1.3,1.3,0,0,0-.945-.32,1.292,1.292,0,0,0-.867.273.85.85,0,0,0-.32.672.759.759,0,0,0,.332.637,3.7,3.7,0,0,0,1.348.441,5.484,5.484,0,0,1,2.316.918,2.014,2.014,0,0,1,.762,1.668,2.231,2.231,0,0,1-.977,1.867,4.215,4.215,0,0,1-2.578.727,3.918,3.918,0,0,1-2.668-.855,2.392,2.392,0,0,1-.934-1.949l.016-.047h2.086a1.186,1.186,0,0,0,.445.984,1.838,1.838,0,0,0,1.1.3,1.567,1.567,0,0,0,.965-.254A.824.824,0,0,0,50.8-2.344ZM26.891,21.867h.047l3.633-9.242h1.914V24H30.945V15.477l-.047-.008L27.453,24h-1.07l-3.547-8.812-.047.008V24H21.25V12.625h2.023ZM40.133,24q-.078-.383-.121-.676a4.96,4.96,0,0,1-.051-.59,3.589,3.589,0,0,1-1.121,1.02,2.867,2.867,0,0,1-1.488.41,2.763,2.763,0,0,1-2.012-.676,2.486,2.486,0,0,1-.691-1.863,2.183,2.183,0,0,1,.98-1.895,4.579,4.579,0,0,1,2.66-.684h1.672v-.836a1.551,1.551,0,0,0-.453-1.176,1.779,1.779,0,0,0-1.281-.434,1.859,1.859,0,0,0-1.211.375,1.125,1.125,0,0,0-.461.9l-1.461.016-.016-.047a2.023,2.023,0,0,1,.863-1.687,3.578,3.578,0,0,1,2.371-.766,3.49,3.49,0,0,1,2.313.73,2.588,2.588,0,0,1,.875,2.105V22.3a7.923,7.923,0,0,0,.047.875,4.5,4.5,0,0,0,.172.828Zm-2.555-1.125a2.739,2.739,0,0,0,1.508-.43,2.042,2.042,0,0,0,.875-.984V20.086H38.234a2.24,2.24,0,0,0-1.488.469,1.4,1.4,0,0,0-.559,1.1,1.159,1.159,0,0,0,.352.891A1.472,1.472,0,0,0,37.578,22.875Zm7.531-7.328.109,1.258a3.069,3.069,0,0,1,1.059-1.043,2.824,2.824,0,0,1,1.449-.371,2.759,2.759,0,0,1,2.117.8,3.515,3.515,0,0,1,.75,2.473V24H49.055V18.7a2.287,2.287,0,0,0-.441-1.586,1.768,1.768,0,0,0-1.348-.469,2.386,2.386,0,0,0-1.207.285,2.072,2.072,0,0,0-.785.8V24H43.734V15.547ZM54.492,24H52.953V15.547h1.539Zm0-10.617H52.953v-1.57h1.539Zm9.57,6.711a4.659,4.659,0,0,1-.875,2.949,2.893,2.893,0,0,1-2.414,1.121A3.354,3.354,0,0,1,59.4,23.9a2.622,2.622,0,0,1-1-.785V27.25H56.859v-11.7h1.18l.242,1.094a2.792,2.792,0,0,1,1.031-.93,3.078,3.078,0,0,1,1.438-.32,2.809,2.809,0,0,1,2.441,1.246,5.637,5.637,0,0,1,.871,3.293Zm-1.539-.164a4.467,4.467,0,0,0-.566-2.363,1.835,1.835,0,0,0-1.668-.926,2.053,2.053,0,0,0-1.133.3,2.25,2.25,0,0,0-.758.824v4.086a2.186,2.186,0,0,0,.758.816,2.126,2.126,0,0,0,1.148.293,1.894,1.894,0,0,0,1.656-.8,3.516,3.516,0,0,0,.563-2.066Zm8.8,2.82A2.863,2.863,0,0,1,70.3,23.8a2.8,2.8,0,0,1-1.445.367,2.716,2.716,0,0,1-2.156-.883,4.1,4.1,0,0,1-.773-2.75V15.547h1.539v5a3.147,3.147,0,0,0,.4,1.859,1.481,1.481,0,0,0,1.242.508,2.531,2.531,0,0,0,1.355-.332,2.077,2.077,0,0,0,.809-.941V15.547H72.8V24H71.422ZM76.711,24H75.172V11.813h1.539Zm7.563,0q-.078-.383-.121-.676a4.96,4.96,0,0,1-.051-.59,3.589,3.589,0,0,1-1.121,1.02,2.867,2.867,0,0,1-1.488.41,2.763,2.763,0,0,1-2.012-.676,2.486,2.486,0,0,1-.691-1.863,2.183,2.183,0,0,1,.98-1.895,4.579,4.579,0,0,1,2.66-.684H84.1v-.836a1.551,1.551,0,0,0-.453-1.176,1.779,1.779,0,0,0-1.281-.434,1.859,1.859,0,0,0-1.211.375,1.125,1.125,0,0,0-.461.9l-1.461.016-.016-.047a2.023,2.023,0,0,1,.863-1.687,3.578,3.578,0,0,1,2.371-.766,3.49,3.49,0,0,1,2.313.73,2.588,2.588,0,0,1,.875,2.105V22.3a7.923,7.923,0,0,0,.047.875,4.5,4.5,0,0,0,.172.828Zm-2.555-1.125a2.739,2.739,0,0,0,1.508-.43,2.042,2.042,0,0,0,.875-.984V20.086H82.375a2.24,2.24,0,0,0-1.488.469,1.4,1.4,0,0,0-.559,1.1,1.159,1.159,0,0,0,.352.891A1.472,1.472,0,0,0,81.719,22.875Zm9.516.086a1.81,1.81,0,0,0,1.242-.473,1.494,1.494,0,0,0,.531-1.16H94.4l.023.047a2.428,2.428,0,0,1-.937,1.941,3.582,3.582,0,0,1-5-.363,4.674,4.674,0,0,1-.969-3.016v-.328a4.654,4.654,0,0,1,.973-3,3.317,3.317,0,0,1,2.746-1.215,3.189,3.189,0,0,1,2.316.875,2.775,2.775,0,0,1,.871,2.148l-.016.047h-1.4a1.865,1.865,0,0,0-.5-1.316,1.658,1.658,0,0,0-1.27-.543,1.777,1.777,0,0,0-1.652.879,4.114,4.114,0,0,0-.52,2.129v.328a4.192,4.192,0,0,0,.512,2.148A1.776,1.776,0,0,0,91.234,22.961ZM97.914,24H96.375V15.547h1.539Zm0-10.617H96.375v-1.57h1.539ZM99.922,19.7a4.654,4.654,0,0,1,1.016-3.09,3.764,3.764,0,0,1,5.535,0,4.639,4.639,0,0,1,1.02,3.094v.172a4.631,4.631,0,0,1-1.016,3.094,3.781,3.781,0,0,1-5.535,0,4.623,4.623,0,0,1-1.02-3.09Zm1.539.172a4.009,4.009,0,0,0,.566,2.219,2.046,2.046,0,0,0,3.355,0,3.988,3.988,0,0,0,.57-2.219V19.7a3.976,3.976,0,0,0-.574-2.211A1.882,1.882,0,0,0,103.7,16.6a1.856,1.856,0,0,0-1.668.883,4.018,4.018,0,0,0-.566,2.211Zm2.992-7.906h1.8l.016.047-2.1,2.031h-1.156Zm6.3,3.586.109,1.258a3.069,3.069,0,0,1,1.059-1.043,2.824,2.824,0,0,1,1.449-.371,2.759,2.759,0,0,1,2.117.8,3.515,3.515,0,0,1,.75,2.473V24H114.7V18.7a2.287,2.287,0,0,0-.441-1.586,1.768,1.768,0,0,0-1.348-.469,2.386,2.386,0,0,0-1.207.285,2.072,2.072,0,0,0-.785.8V24h-1.539V15.547ZM29.164,37.836h-3.75V48H23.875V37.836h-3.7V36.625h8.992Zm4.82,3.07-.789-.047a1.762,1.762,0,0,0-1.027.289,1.854,1.854,0,0,0-.645.813V48H29.984V39.547h1.375l.148,1.234a2.934,2.934,0,0,1,.887-1.023,2.073,2.073,0,0,1,1.215-.367,1.9,1.9,0,0,1,.328.027,2.175,2.175,0,0,1,.258.059ZM40.781,48q-.078-.383-.121-.676a4.96,4.96,0,0,1-.051-.59,3.589,3.589,0,0,1-1.121,1.02,2.867,2.867,0,0,1-1.488.41,2.763,2.763,0,0,1-2.012-.676,2.486,2.486,0,0,1-.691-1.863,2.183,2.183,0,0,1,.98-1.895,4.579,4.579,0,0,1,2.66-.684h1.672v-.836a1.551,1.551,0,0,0-.453-1.176,1.779,1.779,0,0,0-1.281-.434,1.859,1.859,0,0,0-1.211.375,1.125,1.125,0,0,0-.461.9l-1.461.016-.016-.047a2.023,2.023,0,0,1,.863-1.687,3.578,3.578,0,0,1,2.371-.766,3.49,3.49,0,0,1,2.313.73,2.588,2.588,0,0,1,.875,2.105V46.3a7.923,7.923,0,0,0,.047.875,4.5,4.5,0,0,0,.172.828Zm-2.555-1.125a2.739,2.739,0,0,0,1.508-.43,2.042,2.042,0,0,0,.875-.984V44.086H38.883a2.24,2.24,0,0,0-1.488.469,1.4,1.4,0,0,0-.559,1.1,1.159,1.159,0,0,0,.352.891A1.472,1.472,0,0,0,38.227,46.875Zm7.531-7.328.109,1.258a3.069,3.069,0,0,1,1.059-1.043,2.824,2.824,0,0,1,1.449-.371,2.759,2.759,0,0,1,2.117.8,3.515,3.515,0,0,1,.75,2.473V48H49.7V42.7a2.287,2.287,0,0,0-.441-1.586,1.768,1.768,0,0,0-1.348-.469,2.386,2.386,0,0,0-1.207.285,2.072,2.072,0,0,0-.785.8V48H44.383V39.547Zm12.633,6.18A1.026,1.026,0,0,0,58,44.9a3.732,3.732,0,0,0-1.465-.562,6.146,6.146,0,0,1-2.293-.9,1.814,1.814,0,0,1-.8-1.547,2.229,2.229,0,0,1,.879-1.766,3.879,3.879,0,0,1,4.605.047,2.239,2.239,0,0,1,.852,1.82l-.016.047H58.3a1.331,1.331,0,0,0-.48-.992A1.717,1.717,0,0,0,56.6,40.6a1.751,1.751,0,0,0-1.215.367,1.146,1.146,0,0,0-.4.875.927.927,0,0,0,.348.773,3.848,3.848,0,0,0,1.434.5,6.058,6.058,0,0,1,2.359.93,1.872,1.872,0,0,1,.8,1.57,2.226,2.226,0,0,1-.91,1.836,3.754,3.754,0,0,1-2.379.711,3.715,3.715,0,0,1-2.547-.82,2.341,2.341,0,0,1-.883-1.914l.016-.047H54.7a1.424,1.424,0,0,0,.609,1.2,2.358,2.358,0,0,0,1.336.379,2.1,2.1,0,0,0,1.285-.348A1.063,1.063,0,0,0,58.391,45.727ZM62.484,48V40.688h-1.32V39.547h1.32v-1.07a2.9,2.9,0,0,1,.707-2.09,2.6,2.6,0,0,1,1.973-.738,3.4,3.4,0,0,1,.535.043q.27.043.6.121l-.187,1.172q-.141-.031-.34-.055a3.579,3.579,0,0,0-.418-.023,1.215,1.215,0,0,0-1,.4,1.809,1.809,0,0,0-.328,1.168v1.07h1.531v1.141H64.023V48Zm4.266-4.3a4.654,4.654,0,0,1,1.016-3.09,3.764,3.764,0,0,1,5.535,0A4.639,4.639,0,0,1,74.32,43.7v.172A4.631,4.631,0,0,1,73.3,46.961a3.781,3.781,0,0,1-5.535,0,4.623,4.623,0,0,1-1.02-3.09Zm1.539.172a4.009,4.009,0,0,0,.566,2.219,2.046,2.046,0,0,0,3.355,0,3.988,3.988,0,0,0,.57-2.219V43.7a3.976,3.976,0,0,0-.574-2.211,1.882,1.882,0,0,0-1.684-.883,1.856,1.856,0,0,0-1.668.883,4.018,4.018,0,0,0-.566,2.211ZM80.2,40.906l-.789-.047a1.762,1.762,0,0,0-1.027.289,1.854,1.854,0,0,0-.645.813V48H76.2V39.547h1.375l.148,1.234a2.934,2.934,0,0,1,.887-1.023,2.073,2.073,0,0,1,1.215-.367,1.9,1.9,0,0,1,.328.027,2.175,2.175,0,0,1,.258.059Zm2.977-1.359.109,1.109a2.871,2.871,0,0,1,1.051-.934,3.157,3.157,0,0,1,1.48-.332,2.615,2.615,0,0,1,1.449.391,2.363,2.363,0,0,1,.91,1.172,3.162,3.162,0,0,1,1.059-1.145,2.769,2.769,0,0,1,1.527-.418,2.531,2.531,0,0,1,2.039.887,4.051,4.051,0,0,1,.75,2.668V48H92.016V42.93a2.81,2.81,0,0,0-.43-1.77,1.567,1.567,0,0,0-1.281-.52,1.631,1.631,0,0,0-1.277.547,2.381,2.381,0,0,0-.574,1.383V48H86.906V42.93a2.772,2.772,0,0,0-.441-1.738,1.532,1.532,0,0,0-1.27-.551,2.115,2.115,0,0,0-1.156.289,1.867,1.867,0,0,0-.7.813V48H81.8V39.547ZM100.984,48q-.078-.383-.121-.676a4.96,4.96,0,0,1-.051-.59,3.589,3.589,0,0,1-1.121,1.02,2.867,2.867,0,0,1-1.488.41,2.763,2.763,0,0,1-2.012-.676,2.486,2.486,0,0,1-.691-1.863,2.183,2.183,0,0,1,.98-1.895,4.579,4.579,0,0,1,2.66-.684h1.672v-.836a1.551,1.551,0,0,0-.453-1.176,1.779,1.779,0,0,0-1.281-.434,1.859,1.859,0,0,0-1.211.375,1.125,1.125,0,0,0-.461.9l-1.461.016-.016-.047a2.023,2.023,0,0,1,.863-1.687,3.578,3.578,0,0,1,2.371-.766,3.49,3.49,0,0,1,2.313.73,2.588,2.588,0,0,1,.875,2.105V46.3a7.923,7.923,0,0,0,.047.875,4.5,4.5,0,0,0,.172.828ZM98.43,46.875a2.739,2.739,0,0,0,1.508-.43,2.042,2.042,0,0,0,.875-.984V44.086H99.086a2.24,2.24,0,0,0-1.488.469,1.4,1.4,0,0,0-.559,1.1,1.159,1.159,0,0,0,.352.891A1.472,1.472,0,0,0,98.43,46.875Zm9.516.086a1.81,1.81,0,0,0,1.242-.473,1.494,1.494,0,0,0,.531-1.16h1.391l.023.047a2.428,2.428,0,0,1-.937,1.941,3.582,3.582,0,0,1-5-.363,4.674,4.674,0,0,1-.969-3.016v-.328a4.654,4.654,0,0,1,.973-3,3.317,3.317,0,0,1,2.746-1.215,3.189,3.189,0,0,1,2.316.875,2.775,2.775,0,0,1,.871,2.148l-.016.047h-1.4a1.865,1.865,0,0,0-.5-1.316,1.658,1.658,0,0,0-1.27-.543,1.777,1.777,0,0,0-1.652.879,4.114,4.114,0,0,0-.52,2.129v.328a4.192,4.192,0,0,0,.512,2.148A1.776,1.776,0,0,0,107.945,46.961ZM114.625,48h-1.539V39.547h1.539Zm0-10.617h-1.539v-1.57h1.539Zm2.008,6.313a4.654,4.654,0,0,1,1.016-3.09,3.764,3.764,0,0,1,5.535,0A4.639,4.639,0,0,1,124.2,43.7v.172a4.631,4.631,0,0,1-1.016,3.094,3.781,3.781,0,0,1-5.535,0,4.623,4.623,0,0,1-1.02-3.09Zm1.539.172a4.009,4.009,0,0,0,.566,2.219,2.046,2.046,0,0,0,3.355,0,3.988,3.988,0,0,0,.57-2.219V43.7a3.976,3.976,0,0,0-.574-2.211,1.882,1.882,0,0,0-1.684-.883,1.856,1.856,0,0,0-1.668.883,4.018,4.018,0,0,0-.566,2.211Zm2.992-7.906h1.8l.016.047-2.1,2.031h-1.156Zm6.3,3.586.109,1.258a3.069,3.069,0,0,1,1.059-1.043,2.824,2.824,0,0,1,1.449-.371,2.759,2.759,0,0,1,2.117.8,3.515,3.515,0,0,1,.75,2.473V48h-1.539V42.7a2.287,2.287,0,0,0-.441-1.586,1.768,1.768,0,0,0-1.348-.469,2.386,2.386,0,0,0-1.207.285,2.072,2.072,0,0,0-.785.8V48h-1.539V39.547Z" transform="translate(605.033 2728.838)" fill="#12263f"/>
    <g transform="matrix(1, 0, 0, 1, 529.03, 2579)" filter="url(#Trazado_882287)">
      <g id="Trazado_882287-2" data-name="Trazado 882287" transform="translate(55 109)" fill="none">
        <path d="M29,0H150a29,29,0,0,1,29,29V88a29,29,0,0,1-29,29H29A29,29,0,0,1,0,88V29A29,29,0,0,1,29,0Z" stroke="none"/>
        <path d="M 29 3 C 25.48869323730469 3 22.08403015136719 3.687026977539062 18.88055419921875 5.041976928710938 C 15.78482055664062 6.351348876953125 13.00398254394531 8.226448059082031 10.61521911621094 10.61522674560547 C 8.226455688476562 13.00399780273438 6.351348876953125 15.78485107421875 5.041976928710938 18.88054656982422 C 3.687026977539062 22.08402252197266 3 25.48870086669922 3 29 L 3 88 C 3 91.51129913330078 3.687026977539062 94.91597747802734 5.041976928710938 98.11944580078125 C 6.351348876953125 101.2151489257812 8.226455688476562 103.9960021972656 10.61521911621094 106.3847732543945 C 13.00398254394531 108.773551940918 15.78482055664062 110.6486511230469 18.88055419921875 111.9580230712891 C 22.08403015136719 113.3129730224609 25.48869323730469 114 29 114 L 150 114 C 153.5112915039062 114 156.9159698486328 113.3129730224609 160.1194458007812 111.9580230712891 C 163.2151794433594 110.6486511230469 165.9960327148438 108.773551940918 168.3847808837891 106.3847732543945 C 170.7735443115234 103.9960021972656 172.6486511230469 101.2151489257812 173.9580230712891 98.11944580078125 C 175.3129730224609 94.91597747802734 176 91.51129913330078 176 88 L 176 29 C 176 25.48870086669922 175.3129730224609 22.08402252197266 173.9580230712891 18.88054656982422 C 172.6486511230469 15.78485107421875 170.7735443115234 13.00399780273438 168.3847808837891 10.61522674560547 C 165.9960327148438 8.226448059082031 163.2151794433594 6.351348876953125 160.1194458007812 5.041976928710938 C 156.9159698486328 3.687026977539062 153.5112915039062 3 150 3 L 29 3 M 29 0 L 150 0 C 166.0162811279297 0 179 12.98374938964844 179 29 L 179 88 C 179 104.0162506103516 166.0162811279297 117 150 117 L 29 117 C 12.98371887207031 117 0 104.0162506103516 0 88 L 0 29 C 0 12.98374938964844 12.98371887207031 0 29 0 Z" stroke="none" fill="#f0f9fb"/>
      </g>
    </g>
    <path id="Trazado_879924" data-name="Trazado 879924" d="M4281.747,1899.406a5.615,5.615,0,1,0-5.616,5.772A5.6,5.6,0,0,0,4281.747,1899.406Zm-2.128-1c-.246.252-.5.5-.747.748-.152.152-.308.3-.462.452a.215.215,0,0,1-.081.082,8.47,8.47,0,0,1-.607.6.036.036,0,0,1-.021.009.15.15,0,0,1-.107.108.038.038,0,0,1-.009.021h0a8.4,8.4,0,0,1-.6.607h0a.167.167,0,0,1-.1.087.035.035,0,0,1-.009.021h0a7.8,7.8,0,0,1-.63.63l-.084.084a9.609,9.609,0,0,1-.69.7c-.161.151-.38.107-.55-.085a1.508,1.508,0,0,1-.236-.236h0l-.478-.479a1.641,1.641,0,0,1-.237-.237h0l-.505-.5a1.315,1.315,0,0,1-.21-.209l-.026-.027h0l-.478-.479-.026-.027c-.279-.236-.279-.453,0-.689l.026-.027a3.09,3.09,0,0,1,.476-.455c.012-.024.034-.021.055-.018a.4.4,0,0,1,.424.134c.089.1.182.189.273.283l1.108,1.1c.139.138.139.139.285.017l.371-.371h0a3.461,3.461,0,0,1,.37-.37l.318-.318.027-.026h0l.4-.4h0l.319-.316a3.9,3.9,0,0,1,.372-.371,3.809,3.809,0,0,1,.37-.37,3.949,3.949,0,0,1,.37-.371c.12-.123.235-.251.36-.367a.353.353,0,0,1,.491.008c.175.167.347.338.514.513A.351.351,0,0,1,4279.619,1898.41Z" transform="translate(-3665.487 872.197)" fill="#c6e9f3"/>
    <path id="Trazado_879925" data-name="Trazado 879925" d="M4281.747,1899.406a5.615,5.615,0,1,0-5.616,5.772A5.6,5.6,0,0,0,4281.747,1899.406Zm-2.128-1c-.246.252-.5.5-.747.748-.152.152-.308.3-.462.452a.215.215,0,0,1-.081.082,8.47,8.47,0,0,1-.607.6.036.036,0,0,1-.021.009.15.15,0,0,1-.107.108.038.038,0,0,1-.009.021h0a8.4,8.4,0,0,1-.6.607h0a.167.167,0,0,1-.1.087.035.035,0,0,1-.009.021h0a7.8,7.8,0,0,1-.63.63l-.084.084a9.609,9.609,0,0,1-.69.7c-.161.151-.38.107-.55-.085a1.508,1.508,0,0,1-.236-.236h0l-.478-.479a1.641,1.641,0,0,1-.237-.237h0l-.505-.5a1.315,1.315,0,0,1-.21-.209l-.026-.027h0l-.478-.479-.026-.027c-.279-.236-.279-.453,0-.689l.026-.027a3.09,3.09,0,0,1,.476-.455c.012-.024.034-.021.055-.018a.4.4,0,0,1,.424.134c.089.1.182.189.273.283l1.108,1.1c.139.138.139.139.285.017l.371-.371h0a3.461,3.461,0,0,1,.37-.37l.318-.318.027-.026h0l.4-.4h0l.319-.316a3.9,3.9,0,0,1,.372-.371,3.809,3.809,0,0,1,.37-.37,3.949,3.949,0,0,1,.37-.371c.12-.123.235-.251.36-.367a.353.353,0,0,1,.491.008c.175.167.347.338.514.513A.351.351,0,0,1,4279.619,1898.41Z" transform="translate(-3665.487 848.197)" fill="#c6e9f3"/>
    <g transform="matrix(1, 0, 0, 1, 529.03, 2579)" filter="url(#Trazado_879930)">
      <path id="Trazado_879930-2" data-name="Trazado 879930" d="M-8356-9033v350.939h43" transform="translate(8368 9095)" fill="none" stroke="#f0f9fb" stroke-width="4"/>
    </g>
    <g data-type="innerShadowGroup">
      <g transform="matrix(1, 0, 0, 1, 529.03, 2579)" filter="url(#Trazado_882288)">
        <path id="Trazado_882288-3" data-name="Trazado 882288" d="M29,0H97a29,29,0,0,1,29,29V59A29,29,0,0,1,97,88H29A29,29,0,0,1,0,59V29A29,29,0,0,1,29,0Z" transform="translate(9 6)" fill="#f0f9fb"/>
      </g>
      <g transform="matrix(1, 0, 0, 1, 529.03, 2579)" filter="url(#Trazado_882288-2)">
        <path id="Trazado_882288-4" data-name="Trazado 882288" d="M29,0H97a29,29,0,0,1,29,29V59A29,29,0,0,1,97,88H29A29,29,0,0,1,0,59V29A29,29,0,0,1,29,0Z" transform="translate(9 6)" fill="#fff"/>
      </g>
    </g>
    <path id="Trazado_882289" data-name="Trazado 882289" d="M-25.036-4.641-25.73,0H-28.3l1.916-12.8h4.9a4.406,4.406,0,0,1,3.256,1.138,3.269,3.269,0,0,1,.875,2.949,4.44,4.44,0,0,1-1.705,2.988,5.841,5.841,0,0,1-3.647,1.081Zm.3-1.978h2.329a2.427,2.427,0,0,0,1.688-.593,2.45,2.45,0,0,0,.8-1.481,1.96,1.96,0,0,0-.312-1.542,1.836,1.836,0,0,0-1.542-.584H-24.1ZM-12.863-3.99l.018.519.053.009,2.733-6.047H-7.3L-12.792,1.424A6.111,6.111,0,0,1-14.15,3.142a3.23,3.23,0,0,1-2.193.7,3.12,3.12,0,0,1-.584-.053q-.277-.053-.655-.149L-17,1.767q.105.018.237.035a1.813,1.813,0,0,0,.237.018A1.575,1.575,0,0,0-15.517,1.5a2.637,2.637,0,0,0,.659-.769l.4-.729L-16.4-9.51h2.76Zm10.02-7.849L-3.195-9.51h1.608l-.264,1.8H-3.467l-.721,4.843a1.017,1.017,0,0,0,.105.8.725.725,0,0,0,.58.224,2.668,2.668,0,0,0,.356-.022,2.777,2.777,0,0,0,.356-.075l-.07,1.854a5.722,5.722,0,0,1-.778.2,4.631,4.631,0,0,1-.8.066A2.372,2.372,0,0,1-6.354-.554a2.823,2.823,0,0,1-.391-2.3l.721-4.852H-7.4l.264-1.8h1.389l.352-2.329Zm5.168,3.48a4.061,4.061,0,0,1,1.252-.98,3.3,3.3,0,0,1,1.49-.347,2.5,2.5,0,0,1,2.158,1,4.118,4.118,0,0,1,.417,3.045L6.8,0H4.232l.853-5.66a2.478,2.478,0,0,0-.119-1.591A1.108,1.108,0,0,0,3.959-7.69a2.57,2.57,0,0,0-1.042.2,2.4,2.4,0,0,0-.8.571L1.077,0H-1.49L.567-13.711H3.133ZM9.066-4.843a5.906,5.906,0,0,1,1.7-3.524A4.844,4.844,0,0,1,14.26-9.686a3.581,3.581,0,0,1,3.059,1.371,4.483,4.483,0,0,1,.721,3.472l-.026.185A5.976,5.976,0,0,1,16.3-1.125,4.859,4.859,0,0,1,12.8.185,3.586,3.586,0,0,1,9.743-1.182a4.435,4.435,0,0,1-.7-3.476Zm2.531.185a3.806,3.806,0,0,0,.132,2.109,1.343,1.343,0,0,0,1.362.765,1.871,1.871,0,0,0,1.556-.8,4.494,4.494,0,0,0,.8-2.074l.026-.185a3.925,3.925,0,0,0-.154-2.087,1.323,1.323,0,0,0-1.349-.778,1.869,1.869,0,0,0-1.564.813,4.408,4.408,0,0,0-.782,2.052ZM22.583-8.2a4.076,4.076,0,0,1,1.327-1.1,3.5,3.5,0,0,1,1.617-.387,2.422,2.422,0,0,1,2.083.94,3.917,3.917,0,0,1,.4,2.918L27.136,0H24.561l.87-5.818A2.141,2.141,0,0,0,25.3-7.282a1.153,1.153,0,0,0-1.015-.409,2.369,2.369,0,0,0-1.033.224,2.473,2.473,0,0,0-.813.62L21.415,0H18.848l1.424-9.51h2.391Z" transform="translate(601.033 2636)" fill="#12263f"/>
    <g transform="matrix(1, 0, 0, 1, 529.03, 2579)" filter="url(#Trazado_879931)">
      <path id="Trazado_879931-2" data-name="Trazado 879931" d="M-8353-8926.234h43.086" transform="translate(8365 9095)" fill="none" stroke="#f0f9fb" stroke-width="4"/>
    </g>
    <g transform="matrix(1, 0, 0, 1, 529.03, 2579)" filter="url(#Trazado_879932)">
      <path id="Trazado_879932-2" data-name="Trazado 879932" d="M-8353-8926.234h43.086" transform="translate(8365 9227.61)" fill="none" stroke="#f0f9fb" stroke-width="4"/>
    </g>
    <g transform="matrix(1, 0, 0, 1, 529.03, 2579)" filter="url(#Trazado_879933)">
      <path id="Trazado_879933-2" data-name="Trazado 879933" d="M-8356-9033v350.939h43" transform="translate(8660 9095)" fill="none" stroke="#eaf5e9" stroke-width="4"/>
    </g>
    <g transform="matrix(1, 0, 0, 1, 529.03, 2579)" filter="url(#Trazado_879934)">
      <path id="Trazado_879934-2" data-name="Trazado 879934" d="M-8353-8926.234h43.086" transform="translate(8657 9095)" fill="none" stroke="#eaf5e9" stroke-width="4"/>
    </g>
    <g transform="matrix(1, 0, 0, 1, 529.03, 2579)" filter="url(#Trazado_879935)">
      <path id="Trazado_879935-2" data-name="Trazado 879935" d="M-8353-8926.234h43.086" transform="translate(8657 9227.61)" fill="none" stroke="#eaf5e9" stroke-width="4"/>
    </g>
    <path id="Trazado_882290" data-name="Trazado 882290" d="M9.8-9.617H6.539L5.1,0H2.82L4.258-9.617h-3.2l.258-1.758h8.734ZM11.828,0H9.547l1.266-8.453h2.281ZM13.4-10.477H11.117l.258-1.711h2.281Zm.578,6.32a6.25,6.25,0,0,1,1.34-3.262,3.322,3.322,0,0,1,2.621-1.191,2.027,2.027,0,0,1,1.082.285,2.366,2.366,0,0,1,.785.816l.7-4.68H22.8L20.969,0H19.023l-.039-1.039a3.5,3.5,0,0,1-1.078.895,2.77,2.77,0,0,1-1.3.309A2.431,2.431,0,0,1,14.395-.992a4.311,4.311,0,0,1-.441-3Zm2.25.164a3.186,3.186,0,0,0,.1,1.766,1.118,1.118,0,0,0,1.133.617,1.909,1.909,0,0,0,.887-.207,1.987,1.987,0,0,0,.691-.6l.539-3.578a1.389,1.389,0,0,0-.5-.621,1.433,1.433,0,0,0-.816-.223,1.549,1.549,0,0,0-1.316.754,4.508,4.508,0,0,0-.691,1.926Zm10.086.445.016.461.047.008L28.8-8.453h2.453L26.375,1.266a5.432,5.432,0,0,1-1.207,1.527,2.871,2.871,0,0,1-1.949.621,2.773,2.773,0,0,1-.52-.047q-.246-.047-.582-.133l.516-1.664q.094.016.211.031a1.611,1.611,0,0,0,.211.016,1.4,1.4,0,0,0,.9-.285,2.344,2.344,0,0,0,.586-.684L24.9,0,23.164-8.453h2.453ZM36.328-6.492l-.836-.023a1.625,1.625,0,0,0-.859.223,1.789,1.789,0,0,0-.609.629L33.18,0H30.906l1.266-8.453h2.117l-.078,1.211a3.127,3.127,0,0,1,.914-1.012,2,2,0,0,1,1.148-.355,1.788,1.788,0,0,1,.316.027,2.705,2.705,0,0,1,.285.066ZM22.789,22.8h5.547V24H21.25V12.625h1.539ZM31.5,24H29.961V15.547H31.5Zm0-10.617H29.961v-1.57H31.5Zm3.742,2.164.109,1.109a2.871,2.871,0,0,1,1.051-.934,3.158,3.158,0,0,1,1.48-.332,2.615,2.615,0,0,1,1.449.391,2.363,2.363,0,0,1,.91,1.172A3.162,3.162,0,0,1,41.3,15.809a2.769,2.769,0,0,1,1.527-.418,2.531,2.531,0,0,1,2.039.887,4.051,4.051,0,0,1,.75,2.668V24H44.078V18.93a2.81,2.81,0,0,0-.43-1.77,1.567,1.567,0,0,0-1.281-.52,1.631,1.631,0,0,0-1.277.547,2.381,2.381,0,0,0-.574,1.383V24H38.969V18.93a2.772,2.772,0,0,0-.441-1.738,1.532,1.532,0,0,0-1.27-.551,2.115,2.115,0,0,0-1.156.289,1.867,1.867,0,0,0-.7.813V24H33.867V15.547Zm19.813,4.547a4.659,4.659,0,0,1-.875,2.949,2.893,2.893,0,0,1-2.414,1.121,3.354,3.354,0,0,1-1.371-.262,2.622,2.622,0,0,1-1-.785V27.25H47.852v-11.7h1.18l.242,1.094a2.792,2.792,0,0,1,1.031-.93,3.078,3.078,0,0,1,1.438-.32,2.809,2.809,0,0,1,2.441,1.246,5.637,5.637,0,0,1,.871,3.293Zm-1.539-.164a4.467,4.467,0,0,0-.566-2.363,1.835,1.835,0,0,0-1.668-.926,2.053,2.053,0,0,0-1.133.3,2.25,2.25,0,0,0-.758.824v4.086a2.186,2.186,0,0,0,.758.816,2.126,2.126,0,0,0,1.148.293,1.894,1.894,0,0,0,1.656-.8,3.516,3.516,0,0,0,.563-2.066ZM58.609,24H57.07V15.547h1.539Zm0-10.617H57.07v-1.57h1.539Zm5.867,10.781A3.576,3.576,0,0,1,61.637,23a4.48,4.48,0,0,1-1.02-3.062v-.344a4.386,4.386,0,0,1,1.051-3.012,3.3,3.3,0,0,1,2.566-1.191,3.067,3.067,0,0,1,2.543,1.055,4.345,4.345,0,0,1,.848,2.8v.813H62.219L62.2,20.1a3.494,3.494,0,0,0,.563,2.066,1.965,1.965,0,0,0,1.719.793,3.872,3.872,0,0,0,1.371-.223,3.061,3.061,0,0,0,1.012-.613l.6,1a3.7,3.7,0,0,1-1.2.738A4.762,4.762,0,0,1,64.477,24.164ZM64.234,16.6a1.673,1.673,0,0,0-1.332.621,2.938,2.938,0,0,0-.645,1.59l.016.039h3.813v-.125a2.462,2.462,0,0,0-.453-1.523A1.638,1.638,0,0,0,64.234,16.6Zm6.57,6.2h4.883V24H68.969V22.922l4.57-6.156H69.023V15.547h6.4v1.047ZM82.594,24q-.078-.383-.121-.676a4.96,4.96,0,0,1-.051-.59,3.589,3.589,0,0,1-1.121,1.02,2.867,2.867,0,0,1-1.488.41,2.763,2.763,0,0,1-2.012-.676,2.486,2.486,0,0,1-.691-1.863,2.183,2.183,0,0,1,.98-1.895,4.579,4.579,0,0,1,2.66-.684h1.672v-.836a1.551,1.551,0,0,0-.453-1.176,1.779,1.779,0,0,0-1.281-.434,1.859,1.859,0,0,0-1.211.375,1.125,1.125,0,0,0-.461.9l-1.461.016-.016-.047a2.023,2.023,0,0,1,.863-1.687,3.578,3.578,0,0,1,2.371-.766,3.49,3.49,0,0,1,2.313.73,2.588,2.588,0,0,1,.875,2.105V22.3a7.923,7.923,0,0,0,.047.875A4.5,4.5,0,0,0,84.18,24Zm-2.555-1.125a2.739,2.739,0,0,0,1.508-.43,2.042,2.042,0,0,0,.875-.984V20.086H80.7a2.24,2.24,0,0,0-1.488.469,1.4,1.4,0,0,0-.559,1.1,1.159,1.159,0,0,0,.352.891A1.472,1.472,0,0,0,80.039,22.875ZM22.75,43.07V48H21.211V36.633H25.1a4.32,4.32,0,0,1,2.852.828,2.968,2.968,0,0,1,.984,2.406,2.576,2.576,0,0,1-.457,1.523,3.1,3.1,0,0,1-1.332,1.031,2.331,2.331,0,0,1,1.348.988,3.236,3.236,0,0,1,.41,1.691v1.07a3.564,3.564,0,0,0,.117.953,1.429,1.429,0,0,0,.406.688V48H27.844a1.273,1.273,0,0,1-.391-.781,6.454,6.454,0,0,1-.086-1.062V45.117a2.056,2.056,0,0,0-.539-1.484,1.908,1.908,0,0,0-1.445-.562Zm0-1.211h2.2a2.858,2.858,0,0,0,1.879-.5,1.89,1.89,0,0,0,.574-1.512,1.948,1.948,0,0,0-.559-1.488,2.461,2.461,0,0,0-1.738-.527H22.75Zm11.93,6.3A3.576,3.576,0,0,1,31.84,47a4.48,4.48,0,0,1-1.02-3.062v-.344a4.386,4.386,0,0,1,1.051-3.012,3.3,3.3,0,0,1,2.566-1.191,3.067,3.067,0,0,1,2.543,1.055,4.345,4.345,0,0,1,.848,2.8v.813H32.422L32.4,44.1a3.494,3.494,0,0,0,.563,2.066,1.965,1.965,0,0,0,1.719.793,3.872,3.872,0,0,0,1.371-.223,3.061,3.061,0,0,0,1.012-.613l.6,1a3.7,3.7,0,0,1-1.2.738A4.762,4.762,0,0,1,34.68,48.164ZM34.438,40.6a1.673,1.673,0,0,0-1.332.621,2.938,2.938,0,0,0-.645,1.59l.016.039h3.813v-.125a2.462,2.462,0,0,0-.453-1.523A1.638,1.638,0,0,0,34.438,40.6Zm8.617,7.563A3.576,3.576,0,0,1,40.215,47a4.48,4.48,0,0,1-1.02-3.062v-.344a4.386,4.386,0,0,1,1.051-3.012,3.3,3.3,0,0,1,2.566-1.191,3.067,3.067,0,0,1,2.543,1.055,4.345,4.345,0,0,1,.848,2.8v.813H40.8l-.023.039a3.494,3.494,0,0,0,.563,2.066,1.965,1.965,0,0,0,1.719.793,3.872,3.872,0,0,0,1.371-.223,3.061,3.061,0,0,0,1.012-.613l.6,1a3.7,3.7,0,0,1-1.2.738A4.762,4.762,0,0,1,43.055,48.164ZM42.813,40.6a1.673,1.673,0,0,0-1.332.621,2.938,2.938,0,0,0-.645,1.59l.016.039h3.813v-.125a2.462,2.462,0,0,0-.453-1.523A1.638,1.638,0,0,0,42.813,40.6Zm10.031,5.125a1.026,1.026,0,0,0-.387-.828,3.732,3.732,0,0,0-1.465-.562,6.146,6.146,0,0,1-2.293-.9,1.814,1.814,0,0,1-.8-1.547,2.229,2.229,0,0,1,.879-1.766,3.879,3.879,0,0,1,4.605.047,2.239,2.239,0,0,1,.852,1.82l-.016.047H52.75a1.331,1.331,0,0,0-.48-.992,1.717,1.717,0,0,0-1.215-.445,1.751,1.751,0,0,0-1.215.367,1.146,1.146,0,0,0-.4.875.927.927,0,0,0,.348.773,3.848,3.848,0,0,0,1.434.5,6.058,6.058,0,0,1,2.359.93,1.872,1.872,0,0,1,.8,1.57,2.226,2.226,0,0,1-.91,1.836,3.754,3.754,0,0,1-2.379.711,3.715,3.715,0,0,1-2.547-.82,2.341,2.341,0,0,1-.883-1.914l.016-.047h1.469a1.424,1.424,0,0,0,.609,1.2,2.358,2.358,0,0,0,1.336.379,2.1,2.1,0,0,0,1.285-.348A1.063,1.063,0,0,0,52.844,45.727Zm5.594-8.219v2.039h1.6v1.141h-1.6V45.82a1.149,1.149,0,0,0,.246.836.89.89,0,0,0,.652.242,1.429,1.429,0,0,0,.3-.035,2.2,2.2,0,0,0,.273-.074l.211,1.055a1.36,1.36,0,0,1-.508.23,2.562,2.562,0,0,1-.664.09,1.993,1.993,0,0,1-1.492-.566A2.46,2.46,0,0,1,56.9,45.82V40.688H55.555V39.547H56.9V37.508Zm7.25,3.4-.789-.047a1.762,1.762,0,0,0-1.027.289,1.855,1.855,0,0,0-.645.813V48H61.688V39.547h1.375l.148,1.234a2.934,2.934,0,0,1,.887-1.023,2.073,2.073,0,0,1,1.215-.367,1.9,1.9,0,0,1,.328.027,2.175,2.175,0,0,1,.258.059Zm6.969,5.844A2.863,2.863,0,0,1,71.633,47.8a2.8,2.8,0,0,1-1.445.367,2.716,2.716,0,0,1-2.156-.883,4.1,4.1,0,0,1-.773-2.75V39.547H68.8v5a3.147,3.147,0,0,0,.4,1.859,1.481,1.481,0,0,0,1.242.508,2.531,2.531,0,0,0,1.355-.332,2.077,2.077,0,0,0,.809-.941V39.547h1.539V48H72.758Zm7.086.211a1.81,1.81,0,0,0,1.242-.473,1.494,1.494,0,0,0,.531-1.16h1.391l.023.047a2.428,2.428,0,0,1-.937,1.941,3.582,3.582,0,0,1-5-.363,4.674,4.674,0,0,1-.969-3.016v-.328a4.654,4.654,0,0,1,.973-3,3.317,3.317,0,0,1,2.746-1.215,3.189,3.189,0,0,1,2.316.875,2.775,2.775,0,0,1,.871,2.148l-.016.047h-1.4a1.865,1.865,0,0,0-.5-1.316,1.658,1.658,0,0,0-1.27-.543,1.777,1.777,0,0,0-1.652.879,4.114,4.114,0,0,0-.52,2.129v.328a4.192,4.192,0,0,0,.512,2.148A1.776,1.776,0,0,0,79.742,46.961ZM86.9,37.508v2.039h1.6v1.141H86.9V45.82a1.149,1.149,0,0,0,.246.836.89.89,0,0,0,.652.242,1.43,1.43,0,0,0,.3-.035,2.2,2.2,0,0,0,.273-.074l.211,1.055a1.36,1.36,0,0,1-.508.23,2.562,2.562,0,0,1-.664.09,1.993,1.993,0,0,1-1.492-.566,2.46,2.46,0,0,1-.555-1.777V40.688H84.016V39.547h1.344V37.508Zm8.617,9.242A2.863,2.863,0,0,1,94.492,47.8a2.8,2.8,0,0,1-1.445.367,2.716,2.716,0,0,1-2.156-.883,4.1,4.1,0,0,1-.773-2.75V39.547h1.539v5a3.147,3.147,0,0,0,.4,1.859,1.481,1.481,0,0,0,1.242.508,2.531,2.531,0,0,0,1.355-.332,2.077,2.077,0,0,0,.809-.941V39.547H97V48H95.617Zm7.727-5.844-.789-.047a1.762,1.762,0,0,0-1.027.289,1.854,1.854,0,0,0-.645.813V48H99.242V39.547h1.375l.148,1.234a2.934,2.934,0,0,1,.887-1.023,2.073,2.073,0,0,1,1.215-.367,1.9,1.9,0,0,1,.328.027,2.175,2.175,0,0,1,.258.059Zm6.8,7.094q-.078-.383-.121-.676a4.96,4.96,0,0,1-.051-.59,3.589,3.589,0,0,1-1.121,1.02,2.867,2.867,0,0,1-1.488.41,2.763,2.763,0,0,1-2.012-.676,2.486,2.486,0,0,1-.691-1.863,2.183,2.183,0,0,1,.98-1.895,4.579,4.579,0,0,1,2.66-.684h1.672v-.836a1.551,1.551,0,0,0-.453-1.176,1.779,1.779,0,0,0-1.281-.434,1.859,1.859,0,0,0-1.211.375,1.125,1.125,0,0,0-.461.9L105,41.891l-.016-.047a2.023,2.023,0,0,1,.863-1.687,3.578,3.578,0,0,1,2.371-.766,3.49,3.49,0,0,1,2.313.73,2.588,2.588,0,0,1,.875,2.105V46.3a7.923,7.923,0,0,0,.047.875,4.5,4.5,0,0,0,.172.828Zm-2.555-1.125a2.739,2.739,0,0,0,1.508-.43,2.042,2.042,0,0,0,.875-.984V44.086h-1.727a2.24,2.24,0,0,0-1.488.469,1.4,1.4,0,0,0-.559,1.1,1.159,1.159,0,0,0,.352.891A1.472,1.472,0,0,0,107.484,46.875Zm9.516.086a1.81,1.81,0,0,0,1.242-.473,1.494,1.494,0,0,0,.531-1.16h1.391l.023.047a2.428,2.428,0,0,1-.937,1.941,3.582,3.582,0,0,1-5-.363,4.674,4.674,0,0,1-.969-3.016v-.328a4.654,4.654,0,0,1,.973-3A3.317,3.317,0,0,1,117,39.391a3.189,3.189,0,0,1,2.316.875,2.775,2.775,0,0,1,.871,2.148l-.016.047h-1.4a1.865,1.865,0,0,0-.5-1.316A1.658,1.658,0,0,0,117,40.6a1.777,1.777,0,0,0-1.652.879,4.114,4.114,0,0,0-.52,2.129v.328a4.192,4.192,0,0,0,.512,2.148A1.776,1.776,0,0,0,117,46.961ZM123.68,48h-1.539V39.547h1.539Zm0-10.617h-1.539v-1.57h1.539Zm2.008,6.313a4.654,4.654,0,0,1,1.016-3.09,3.764,3.764,0,0,1,5.535,0,4.639,4.639,0,0,1,1.02,3.094v.172a4.631,4.631,0,0,1-1.016,3.094,3.781,3.781,0,0,1-5.535,0,4.623,4.623,0,0,1-1.02-3.09Zm1.539.172a4.009,4.009,0,0,0,.566,2.219,2.046,2.046,0,0,0,3.355,0,3.988,3.988,0,0,0,.57-2.219V43.7a3.976,3.976,0,0,0-.574-2.211,1.882,1.882,0,0,0-1.684-.883,1.856,1.856,0,0,0-1.668.883,4.018,4.018,0,0,0-.566,2.211Zm2.992-7.906h1.8l.016.047-2.1,2.031h-1.156Zm6.3,3.586.109,1.258a3.069,3.069,0,0,1,1.059-1.043,2.824,2.824,0,0,1,1.449-.371,2.759,2.759,0,0,1,2.117.8,3.515,3.515,0,0,1,.75,2.473V48h-1.539V42.7a2.287,2.287,0,0,0-.441-1.586,1.768,1.768,0,0,0-1.348-.469,2.386,2.386,0,0,0-1.207.285,2.072,2.072,0,0,0-.785.8V48h-1.539V39.547Z" transform="translate(896.033 2855.838)" fill="#12263f"/>
    <g transform="matrix(1, 0, 0, 1, 529.03, 2579)" filter="url(#Trazado_882291)">
      <g id="Trazado_882291-2" data-name="Trazado 882291" transform="translate(346 236)" fill="none">
        <path d="M29,0H150a29,29,0,0,1,29,29V88a29,29,0,0,1-29,29H29A29,29,0,0,1,0,88V29A29,29,0,0,1,29,0Z" stroke="none"/>
        <path d="M 29 3 C 25.48869323730469 3 22.08403015136719 3.687026977539062 18.88055419921875 5.041976928710938 C 15.78482055664062 6.351348876953125 13.00398254394531 8.226448059082031 10.61521911621094 10.61522674560547 C 8.226455688476562 13.00399780273438 6.351348876953125 15.78485107421875 5.041976928710938 18.88054656982422 C 3.687026977539062 22.08402252197266 3 25.48870086669922 3 29 L 3 88 C 3 91.51129913330078 3.687026977539062 94.91597747802734 5.041976928710938 98.11944580078125 C 6.351348876953125 101.2151489257812 8.226455688476562 103.9960021972656 10.61521911621094 106.3847732543945 C 13.00398254394531 108.773551940918 15.78482055664062 110.6486511230469 18.88055419921875 111.9580230712891 C 22.08403015136719 113.3129730224609 25.48869323730469 114 29 114 L 150 114 C 153.5112915039062 114 156.9159698486328 113.3129730224609 160.1194458007812 111.9580230712891 C 163.2151794433594 110.6486511230469 165.9960327148438 108.773551940918 168.3847808837891 106.3847732543945 C 170.7735443115234 103.9960021972656 172.6486511230469 101.2151489257812 173.9580230712891 98.11944580078125 C 175.3129730224609 94.91597747802734 176 91.51129913330078 176 88 L 176 29 C 176 25.48870086669922 175.3129730224609 22.08402252197266 173.9580230712891 18.88054656982422 C 172.6486511230469 15.78485107421875 170.7735443115234 13.00399780273438 168.3847808837891 10.61522674560547 C 165.9960327148438 8.226448059082031 163.2151794433594 6.351348876953125 160.1194458007812 5.041976928710938 C 156.9159698486328 3.687026977539062 153.5112915039062 3 150 3 L 29 3 M 29 0 L 150 0 C 166.0162811279297 0 179 12.98374938964844 179 29 L 179 88 C 179 104.0162506103516 166.0162811279297 117 150 117 L 29 117 C 12.98371887207031 117 0 104.0162506103516 0 88 L 0 29 C 0 12.98374938964844 12.98371887207031 0 29 0 Z" stroke="none" fill="#eaf5e9"/>
      </g>
    </g>
    <path id="Trazado_879936" data-name="Trazado 879936" d="M4281.747,1899.406a5.615,5.615,0,1,0-5.616,5.772A5.6,5.6,0,0,0,4281.747,1899.406Zm-2.128-1c-.246.252-.5.5-.747.748-.152.152-.308.3-.462.452a.215.215,0,0,1-.081.082,8.47,8.47,0,0,1-.607.6.036.036,0,0,1-.021.009.15.15,0,0,1-.107.108.038.038,0,0,1-.009.021h0a8.4,8.4,0,0,1-.6.607h0a.167.167,0,0,1-.1.087.035.035,0,0,1-.009.021h0a7.8,7.8,0,0,1-.63.63l-.084.084a9.609,9.609,0,0,1-.69.7c-.161.151-.38.107-.55-.085a1.508,1.508,0,0,1-.236-.236h0l-.478-.479a1.641,1.641,0,0,1-.237-.237h0l-.505-.5a1.315,1.315,0,0,1-.21-.209l-.026-.027h0l-.478-.479-.026-.027c-.279-.236-.279-.453,0-.689l.026-.027a3.09,3.09,0,0,1,.476-.455c.012-.024.034-.021.055-.018a.4.4,0,0,1,.424.134c.089.1.182.189.273.283l1.108,1.1c.139.138.139.139.285.017l.371-.371h0a3.461,3.461,0,0,1,.37-.37l.318-.318.027-.026h0l.4-.4h0l.319-.316a3.9,3.9,0,0,1,.372-.371,3.809,3.809,0,0,1,.37-.37,3.949,3.949,0,0,1,.37-.371c.12-.123.235-.251.36-.367a.353.353,0,0,1,.491.008c.175.167.347.338.514.513A.351.351,0,0,1,4279.619,1898.41Z" transform="translate(-3374.487 999.197)" fill="#b0dcae"/>
    <path id="Trazado_879937" data-name="Trazado 879937" d="M4281.747,1899.406a5.615,5.615,0,1,0-5.616,5.772A5.6,5.6,0,0,0,4281.747,1899.406Zm-2.128-1c-.246.252-.5.5-.747.748-.152.152-.308.3-.462.452a.215.215,0,0,1-.081.082,8.47,8.47,0,0,1-.607.6.036.036,0,0,1-.021.009.15.15,0,0,1-.107.108.038.038,0,0,1-.009.021h0a8.4,8.4,0,0,1-.6.607h0a.167.167,0,0,1-.1.087.035.035,0,0,1-.009.021h0a7.8,7.8,0,0,1-.63.63l-.084.084a9.609,9.609,0,0,1-.69.7c-.161.151-.38.107-.55-.085a1.508,1.508,0,0,1-.236-.236h0l-.478-.479a1.641,1.641,0,0,1-.237-.237h0l-.505-.5a1.315,1.315,0,0,1-.21-.209l-.026-.027h0l-.478-.479-.026-.027c-.279-.236-.279-.453,0-.689l.026-.027a3.09,3.09,0,0,1,.476-.455c.012-.024.034-.021.055-.018a.4.4,0,0,1,.424.134c.089.1.182.189.273.283l1.108,1.1c.139.138.139.139.285.017l.371-.371h0a3.461,3.461,0,0,1,.37-.37l.318-.318.027-.026h0l.4-.4h0l.319-.316a3.9,3.9,0,0,1,.372-.371,3.809,3.809,0,0,1,.37-.37,3.949,3.949,0,0,1,.37-.371c.12-.123.235-.251.36-.367a.353.353,0,0,1,.491.008c.175.167.347.338.514.513A.351.351,0,0,1,4279.619,1898.41Z" transform="translate(-3374.487 975.197)" fill="#b0dcae"/>
    <path id="Trazado_882292" data-name="Trazado 882292" d="M.422,0l1.7-11.375H6.094a4.05,4.05,0,0,1,3.2,1.344,4.006,4.006,0,0,1,.883,3.406L9.891-4.742A5.388,5.388,0,0,1,8.031-1.285,5.482,5.482,0,0,1,4.391,0ZM4.141-9.617,2.961-1.75h1.7A2.617,2.617,0,0,0,6.57-2.6,3.761,3.761,0,0,0,7.6-4.742l.289-1.9A2.972,2.972,0,0,0,7.527-8.8a1.914,1.914,0,0,0-1.691-.812ZM19.063-3.992a5.621,5.621,0,0,1-1.32,3.051A3.381,3.381,0,0,1,15.148.164,2.325,2.325,0,0,1,14.02-.1a2.075,2.075,0,0,1-.785-.762L12.625,3.25H10.352l1.75-11.7h2.055l-.016,1a3.318,3.318,0,0,1,1.031-.859,2.716,2.716,0,0,1,1.273-.3,2.38,2.38,0,0,1,2.219,1.238,4.93,4.93,0,0,1,.422,3.215ZM16.8-4.156A3.9,3.9,0,0,0,16.7-6.109a1.089,1.089,0,0,0-1.113-.727,1.81,1.81,0,0,0-.9.223,2.026,2.026,0,0,0-.68.629l-.555,3.656a1.116,1.116,0,0,0,.492.555,1.769,1.769,0,0,0,.867.188,1.558,1.558,0,0,0,1.3-.656,3.829,3.829,0,0,0,.672-1.75ZM22.266,0H19.984l1.828-12.187h2.281Zm5.453-3.547.016.461.047.008,2.43-5.375h2.453L27.781,1.266a5.432,5.432,0,0,1-1.207,1.527,2.871,2.871,0,0,1-1.949.621,2.773,2.773,0,0,1-.52-.047q-.246-.047-.582-.133l.516-1.664q.094.016.211.031a1.611,1.611,0,0,0,.211.016,1.4,1.4,0,0,0,.9-.285,2.344,2.344,0,0,0,.586-.684L26.3,0,24.57-8.453h2.453ZM37.734-6.492,36.9-6.516a1.625,1.625,0,0,0-.859.223,1.789,1.789,0,0,0-.609.629L34.586,0H32.313l1.266-8.453H35.7l-.078,1.211a3.127,3.127,0,0,1,.914-1.012,2,2,0,0,1,1.148-.355A1.788,1.788,0,0,1,38-8.582a2.705,2.705,0,0,1,.285.066ZM29.2,13.836h-3.75V24H23.914V13.836h-3.7V12.625H29.2Zm4.82,3.07-.789-.047a1.762,1.762,0,0,0-1.027.289,1.854,1.854,0,0,0-.645.813V24H30.023V15.547H31.4l.148,1.234a2.934,2.934,0,0,1,.887-1.023,2.073,2.073,0,0,1,1.215-.367,1.9,1.9,0,0,1,.328.027,2.175,2.175,0,0,1,.258.059ZM40.82,24q-.078-.383-.121-.676a4.96,4.96,0,0,1-.051-.59,3.589,3.589,0,0,1-1.121,1.02,2.867,2.867,0,0,1-1.488.41,2.763,2.763,0,0,1-2.012-.676,2.486,2.486,0,0,1-.691-1.863,2.183,2.183,0,0,1,.98-1.895,4.579,4.579,0,0,1,2.66-.684h1.672v-.836a1.551,1.551,0,0,0-.453-1.176,1.779,1.779,0,0,0-1.281-.434,1.859,1.859,0,0,0-1.211.375,1.125,1.125,0,0,0-.461.9l-1.461.016-.016-.047a2.023,2.023,0,0,1,.863-1.687A3.578,3.578,0,0,1,39,15.391a3.49,3.49,0,0,1,2.313.73,2.588,2.588,0,0,1,.875,2.105V22.3a7.923,7.923,0,0,0,.047.875,4.5,4.5,0,0,0,.172.828Zm-2.555-1.125a2.739,2.739,0,0,0,1.508-.43,2.042,2.042,0,0,0,.875-.984V20.086H38.922a2.24,2.24,0,0,0-1.488.469,1.4,1.4,0,0,0-.559,1.1,1.159,1.159,0,0,0,.352.891A1.472,1.472,0,0,0,38.266,22.875ZM45.8,15.547l.109,1.258a3.069,3.069,0,0,1,1.059-1.043,2.824,2.824,0,0,1,1.449-.371,2.759,2.759,0,0,1,2.117.8,3.515,3.515,0,0,1,.75,2.473V24H49.742V18.7a2.287,2.287,0,0,0-.441-1.586,1.768,1.768,0,0,0-1.348-.469,2.386,2.386,0,0,0-1.207.285,2.072,2.072,0,0,0-.785.8V24H44.422V15.547Zm12.633,6.18a1.026,1.026,0,0,0-.387-.828,3.732,3.732,0,0,0-1.465-.562,6.146,6.146,0,0,1-2.293-.9,1.814,1.814,0,0,1-.8-1.547,2.229,2.229,0,0,1,.879-1.766,3.879,3.879,0,0,1,4.605.047,2.239,2.239,0,0,1,.852,1.82l-.016.047H58.336a1.331,1.331,0,0,0-.48-.992,1.717,1.717,0,0,0-1.215-.445,1.751,1.751,0,0,0-1.215.367,1.146,1.146,0,0,0-.4.875.927.927,0,0,0,.348.773,3.848,3.848,0,0,0,1.434.5,6.058,6.058,0,0,1,2.359.93,1.872,1.872,0,0,1,.8,1.57,2.226,2.226,0,0,1-.91,1.836,3.754,3.754,0,0,1-2.379.711,3.715,3.715,0,0,1-2.547-.82,2.341,2.341,0,0,1-.883-1.914l.016-.047h1.469a1.424,1.424,0,0,0,.609,1.2,2.358,2.358,0,0,0,1.336.379,2.1,2.1,0,0,0,1.285-.348A1.063,1.063,0,0,0,58.43,21.727ZM62.523,24V16.688H61.2V15.547h1.32v-1.07a2.9,2.9,0,0,1,.707-2.09,2.6,2.6,0,0,1,1.973-.738,3.4,3.4,0,0,1,.535.043q.27.043.6.121l-.187,1.172q-.141-.031-.34-.055a3.579,3.579,0,0,0-.418-.023,1.215,1.215,0,0,0-1,.4,1.809,1.809,0,0,0-.328,1.168v1.07h1.531v1.141H64.063V24Zm4.266-4.3a4.654,4.654,0,0,1,1.016-3.09,3.764,3.764,0,0,1,5.535,0,4.639,4.639,0,0,1,1.02,3.094v.172a4.631,4.631,0,0,1-1.016,3.094,3.781,3.781,0,0,1-5.535,0,4.623,4.623,0,0,1-1.02-3.09Zm1.539.172a4.009,4.009,0,0,0,.566,2.219,2.046,2.046,0,0,0,3.355,0,3.988,3.988,0,0,0,.57-2.219V19.7a3.976,3.976,0,0,0-.574-2.211,1.882,1.882,0,0,0-1.684-.883,1.856,1.856,0,0,0-1.668.883,4.018,4.018,0,0,0-.566,2.211Zm11.914-2.961-.789-.047a1.762,1.762,0,0,0-1.027.289,1.854,1.854,0,0,0-.645.813V24H76.242V15.547h1.375l.148,1.234a2.934,2.934,0,0,1,.887-1.023,2.073,2.073,0,0,1,1.215-.367,1.9,1.9,0,0,1,.328.027,2.175,2.175,0,0,1,.258.059Zm2.977-1.359.109,1.109a2.871,2.871,0,0,1,1.051-.934,3.158,3.158,0,0,1,1.48-.332,2.615,2.615,0,0,1,1.449.391,2.363,2.363,0,0,1,.91,1.172,3.162,3.162,0,0,1,1.059-1.145,2.769,2.769,0,0,1,1.527-.418,2.531,2.531,0,0,1,2.039.887,4.051,4.051,0,0,1,.75,2.668V24H92.055V18.93a2.81,2.81,0,0,0-.43-1.77,1.567,1.567,0,0,0-1.281-.52,1.631,1.631,0,0,0-1.277.547,2.381,2.381,0,0,0-.574,1.383V24H86.945V18.93a2.772,2.772,0,0,0-.441-1.738,1.532,1.532,0,0,0-1.27-.551,2.115,2.115,0,0,0-1.156.289,1.867,1.867,0,0,0-.7.813V24H81.844V15.547ZM101.023,24q-.078-.383-.121-.676a4.96,4.96,0,0,1-.051-.59,3.589,3.589,0,0,1-1.121,1.02,2.867,2.867,0,0,1-1.488.41,2.763,2.763,0,0,1-2.012-.676,2.486,2.486,0,0,1-.691-1.863,2.183,2.183,0,0,1,.98-1.895,4.579,4.579,0,0,1,2.66-.684h1.672v-.836a1.551,1.551,0,0,0-.453-1.176,1.779,1.779,0,0,0-1.281-.434,1.859,1.859,0,0,0-1.211.375,1.125,1.125,0,0,0-.461.9l-1.461.016-.016-.047a2.023,2.023,0,0,1,.863-1.687,3.578,3.578,0,0,1,2.371-.766,3.49,3.49,0,0,1,2.313.73,2.588,2.588,0,0,1,.875,2.105V22.3a7.923,7.923,0,0,0,.047.875,4.5,4.5,0,0,0,.172.828Zm-2.555-1.125a2.739,2.739,0,0,0,1.508-.43,2.042,2.042,0,0,0,.875-.984V20.086H99.125a2.24,2.24,0,0,0-1.488.469,1.4,1.4,0,0,0-.559,1.1,1.159,1.159,0,0,0,.352.891A1.472,1.472,0,0,0,98.469,22.875Zm9.516.086a1.81,1.81,0,0,0,1.242-.473,1.494,1.494,0,0,0,.531-1.16h1.391l.023.047a2.428,2.428,0,0,1-.937,1.941,3.582,3.582,0,0,1-5-.363,4.674,4.674,0,0,1-.969-3.016v-.328a4.654,4.654,0,0,1,.973-3,3.317,3.317,0,0,1,2.746-1.215,3.189,3.189,0,0,1,2.316.875,2.775,2.775,0,0,1,.871,2.148l-.016.047h-1.4a1.865,1.865,0,0,0-.5-1.316,1.658,1.658,0,0,0-1.27-.543,1.777,1.777,0,0,0-1.652.879,4.114,4.114,0,0,0-.52,2.129v.328a4.192,4.192,0,0,0,.512,2.148A1.776,1.776,0,0,0,107.984,22.961ZM114.664,24h-1.539V15.547h1.539Zm0-10.617h-1.539v-1.57h1.539Zm2.008,6.313a4.654,4.654,0,0,1,1.016-3.09,3.764,3.764,0,0,1,5.535,0,4.639,4.639,0,0,1,1.02,3.094v.172a4.631,4.631,0,0,1-1.016,3.094,3.781,3.781,0,0,1-5.535,0,4.623,4.623,0,0,1-1.02-3.09Zm1.539.172a4.009,4.009,0,0,0,.566,2.219,2.046,2.046,0,0,0,3.355,0,3.988,3.988,0,0,0,.57-2.219V19.7a3.976,3.976,0,0,0-.574-2.211,1.882,1.882,0,0,0-1.684-.883,1.856,1.856,0,0,0-1.668.883,4.018,4.018,0,0,0-.566,2.211Zm2.992-7.906H123l.016.047-2.1,2.031h-1.156Zm6.3,3.586.109,1.258a3.069,3.069,0,0,1,1.059-1.043,2.824,2.824,0,0,1,1.449-.371,2.759,2.759,0,0,1,2.117.8,3.515,3.515,0,0,1,.75,2.473V24h-1.539V18.7A2.287,2.287,0,0,0,131,17.109a1.768,1.768,0,0,0-1.348-.469,2.386,2.386,0,0,0-1.207.285,2.072,2.072,0,0,0-.785.8V24h-1.539V15.547ZM27.547,42.969h-4.8V48H21.211V36.625h7.133v1.211H22.75v3.922h4.8ZM31.492,48H29.953V39.547h1.539Zm0-10.617H29.953v-1.57h1.539ZM35.523,48H33.984V35.813h1.539Zm4.508-10.492v2.039h1.6v1.141h-1.6V45.82a1.149,1.149,0,0,0,.246.836.89.89,0,0,0,.652.242,1.429,1.429,0,0,0,.3-.035,2.2,2.2,0,0,0,.273-.074l.211,1.055a1.36,1.36,0,0,1-.508.23,2.562,2.562,0,0,1-.664.09,1.993,1.993,0,0,1-1.492-.566,2.46,2.46,0,0,1-.555-1.777V40.688H37.148V39.547h1.344V37.508Zm7.25,3.4-.789-.047a1.762,1.762,0,0,0-1.027.289,1.855,1.855,0,0,0-.645.813V48H43.281V39.547h1.375l.148,1.234a2.934,2.934,0,0,1,.887-1.023,2.073,2.073,0,0,1,1.215-.367,1.9,1.9,0,0,1,.328.027,2.175,2.175,0,0,1,.258.059ZM54.078,48q-.078-.383-.121-.676a4.96,4.96,0,0,1-.051-.59,3.589,3.589,0,0,1-1.121,1.02,2.867,2.867,0,0,1-1.488.41,2.763,2.763,0,0,1-2.012-.676,2.486,2.486,0,0,1-.691-1.863,2.183,2.183,0,0,1,.98-1.895,4.579,4.579,0,0,1,2.66-.684h1.672v-.836a1.551,1.551,0,0,0-.453-1.176,1.779,1.779,0,0,0-1.281-.434,1.859,1.859,0,0,0-1.211.375,1.125,1.125,0,0,0-.461.9l-1.461.016-.016-.047a2.023,2.023,0,0,1,.863-1.687,3.578,3.578,0,0,1,2.371-.766,3.49,3.49,0,0,1,2.313.73,2.588,2.588,0,0,1,.875,2.105V46.3a7.923,7.923,0,0,0,.047.875,4.5,4.5,0,0,0,.172.828Zm-2.555-1.125a2.739,2.739,0,0,0,1.508-.43,2.042,2.042,0,0,0,.875-.984V44.086H52.18a2.24,2.24,0,0,0-1.488.469,1.4,1.4,0,0,0-.559,1.1,1.159,1.159,0,0,0,.352.891A1.472,1.472,0,0,0,51.523,46.875Zm5.8-2.945a5.641,5.641,0,0,1,.871-3.289,2.807,2.807,0,0,1,2.441-1.25,3.027,3.027,0,0,1,1.316.273,2.7,2.7,0,0,1,.98.8V35.813h1.539V48H63.3l-.234-1.07a2.743,2.743,0,0,1-1.023.922,3.058,3.058,0,0,1-1.414.313A2.9,2.9,0,0,1,58.2,47.043a4.659,4.659,0,0,1-.875-2.949Zm1.539.164a3.588,3.588,0,0,0,.523,2.051,1.828,1.828,0,0,0,1.625.77,2.039,2.039,0,0,0,1.156-.312,2.334,2.334,0,0,0,.766-.875V41.781a2.37,2.37,0,0,0-.77-.832,2.033,2.033,0,0,0-1.137-.309,1.759,1.759,0,0,0-1.637.914,4.718,4.718,0,0,0-.527,2.375Zm7.547-.4a4.654,4.654,0,0,1,1.016-3.09,3.764,3.764,0,0,1,5.535,0,4.639,4.639,0,0,1,1.02,3.094v.172a4.631,4.631,0,0,1-1.016,3.094,3.781,3.781,0,0,1-5.535,0,4.623,4.623,0,0,1-1.02-3.09Zm1.539.172a4.009,4.009,0,0,0,.566,2.219,2.046,2.046,0,0,0,3.355,0,3.988,3.988,0,0,0,.57-2.219V43.7a3.976,3.976,0,0,0-.574-2.211,1.882,1.882,0,0,0-1.684-.883,1.856,1.856,0,0,0-1.668.883,4.018,4.018,0,0,0-.566,2.211Z" transform="translate(896.033 2728.838)" fill="#12263f"/>
    <g transform="matrix(1, 0, 0, 1, 529.03, 2579)" filter="url(#Trazado_882293)">
      <g id="Trazado_882293-2" data-name="Trazado 882293" transform="translate(346 109)" fill="none">
        <path d="M29,0H150a29,29,0,0,1,29,29V88a29,29,0,0,1-29,29H29A29,29,0,0,1,0,88V29A29,29,0,0,1,29,0Z" stroke="none"/>
        <path d="M 29 3 C 25.48869323730469 3 22.08403015136719 3.687026977539062 18.88055419921875 5.041976928710938 C 15.78482055664062 6.351348876953125 13.00398254394531 8.226448059082031 10.61521911621094 10.61522674560547 C 8.226455688476562 13.00399780273438 6.351348876953125 15.78485107421875 5.041976928710938 18.88054656982422 C 3.687026977539062 22.08402252197266 3 25.48870086669922 3 29 L 3 88 C 3 91.51129913330078 3.687026977539062 94.91597747802734 5.041976928710938 98.11944580078125 C 6.351348876953125 101.2151489257812 8.226455688476562 103.9960021972656 10.61521911621094 106.3847732543945 C 13.00398254394531 108.773551940918 15.78482055664062 110.6486511230469 18.88055419921875 111.9580230712891 C 22.08403015136719 113.3129730224609 25.48869323730469 114 29 114 L 150 114 C 153.5112915039062 114 156.9159698486328 113.3129730224609 160.1194458007812 111.9580230712891 C 163.2151794433594 110.6486511230469 165.9960327148438 108.773551940918 168.3847808837891 106.3847732543945 C 170.7735443115234 103.9960021972656 172.6486511230469 101.2151489257812 173.9580230712891 98.11944580078125 C 175.3129730224609 94.91597747802734 176 91.51129913330078 176 88 L 176 29 C 176 25.48870086669922 175.3129730224609 22.08402252197266 173.9580230712891 18.88054656982422 C 172.6486511230469 15.78485107421875 170.7735443115234 13.00399780273438 168.3847808837891 10.61522674560547 C 165.9960327148438 8.226448059082031 163.2151794433594 6.351348876953125 160.1194458007812 5.041976928710938 C 156.9159698486328 3.687026977539062 153.5112915039062 3 150 3 L 29 3 M 29 0 L 150 0 C 166.0162811279297 0 179 12.98374938964844 179 29 L 179 88 C 179 104.0162506103516 166.0162811279297 117 150 117 L 29 117 C 12.98371887207031 117 0 104.0162506103516 0 88 L 0 29 C 0 12.98374938964844 12.98371887207031 0 29 0 Z" stroke="none" fill="#eaf5e9"/>
      </g>
    </g>
    <path id="Trazado_879938" data-name="Trazado 879938" d="M4281.747,1899.406a5.615,5.615,0,1,0-5.616,5.772A5.6,5.6,0,0,0,4281.747,1899.406Zm-2.128-1c-.246.252-.5.5-.747.748-.152.152-.308.3-.462.452a.215.215,0,0,1-.081.082,8.47,8.47,0,0,1-.607.6.036.036,0,0,1-.021.009.15.15,0,0,1-.107.108.038.038,0,0,1-.009.021h0a8.4,8.4,0,0,1-.6.607h0a.167.167,0,0,1-.1.087.035.035,0,0,1-.009.021h0a7.8,7.8,0,0,1-.63.63l-.084.084a9.609,9.609,0,0,1-.69.7c-.161.151-.38.107-.55-.085a1.508,1.508,0,0,1-.236-.236h0l-.478-.479a1.641,1.641,0,0,1-.237-.237h0l-.505-.5a1.315,1.315,0,0,1-.21-.209l-.026-.027h0l-.478-.479-.026-.027c-.279-.236-.279-.453,0-.689l.026-.027a3.09,3.09,0,0,1,.476-.455c.012-.024.034-.021.055-.018a.4.4,0,0,1,.424.134c.089.1.182.189.273.283l1.108,1.1c.139.138.139.139.285.017l.371-.371h0a3.461,3.461,0,0,1,.37-.37l.318-.318.027-.026h0l.4-.4h0l.319-.316a3.9,3.9,0,0,1,.372-.371,3.809,3.809,0,0,1,.37-.37,3.949,3.949,0,0,1,.37-.371c.12-.123.235-.251.36-.367a.353.353,0,0,1,.491.008c.175.167.347.338.514.513A.351.351,0,0,1,4279.619,1898.41Z" transform="translate(-3374.487 872.197)" fill="#b0dcae"/>
    <path id="Trazado_879939" data-name="Trazado 879939" d="M4281.747,1899.406a5.615,5.615,0,1,0-5.616,5.772A5.6,5.6,0,0,0,4281.747,1899.406Zm-2.128-1c-.246.252-.5.5-.747.748-.152.152-.308.3-.462.452a.215.215,0,0,1-.081.082,8.47,8.47,0,0,1-.607.6.036.036,0,0,1-.021.009.15.15,0,0,1-.107.108.038.038,0,0,1-.009.021h0a8.4,8.4,0,0,1-.6.607h0a.167.167,0,0,1-.1.087.035.035,0,0,1-.009.021h0a7.8,7.8,0,0,1-.63.63l-.084.084a9.609,9.609,0,0,1-.69.7c-.161.151-.38.107-.55-.085a1.508,1.508,0,0,1-.236-.236h0l-.478-.479a1.641,1.641,0,0,1-.237-.237h0l-.505-.5a1.315,1.315,0,0,1-.21-.209l-.026-.027h0l-.478-.479-.026-.027c-.279-.236-.279-.453,0-.689l.026-.027a3.09,3.09,0,0,1,.476-.455c.012-.024.034-.021.055-.018a.4.4,0,0,1,.424.134c.089.1.182.189.273.283l1.108,1.1c.139.138.139.139.285.017l.371-.371h0a3.461,3.461,0,0,1,.37-.37l.318-.318.027-.026h0l.4-.4h0l.319-.316a3.9,3.9,0,0,1,.372-.371,3.809,3.809,0,0,1,.37-.37,3.949,3.949,0,0,1,.37-.371c.12-.123.235-.251.36-.367a.353.353,0,0,1,.491.008c.175.167.347.338.514.513A.351.351,0,0,1,4279.619,1898.41Z" transform="translate(-3374.487 848.197)" fill="#b0dcae"/>
    <path id="Trazado_882294" data-name="Trazado 882294" d="M.422,0l1.7-11.375H6.094a4.05,4.05,0,0,1,3.2,1.344,4.006,4.006,0,0,1,.883,3.406L9.891-4.742A5.388,5.388,0,0,1,8.031-1.285,5.482,5.482,0,0,1,4.391,0ZM4.141-9.617,2.961-1.75h1.7A2.617,2.617,0,0,0,6.57-2.6,3.761,3.761,0,0,0,7.6-4.742l.289-1.9A2.972,2.972,0,0,0,7.527-8.8a1.914,1.914,0,0,0-1.691-.812ZM15.82,0A3.7,3.7,0,0,1,15.7-.613a4.615,4.615,0,0,1-.031-.66A3.883,3.883,0,0,1,14.582-.242a2.609,2.609,0,0,1-1.434.406,2.5,2.5,0,0,1-1.922-.691,2.114,2.114,0,0,1-.461-1.855A2.637,2.637,0,0,1,12-4.332a5.433,5.433,0,0,1,2.906-.66h1.281l.1-.672a1.182,1.182,0,0,0-.176-.957,1.124,1.124,0,0,0-.91-.324,1.425,1.425,0,0,0-.887.27,1.063,1.063,0,0,0-.418.738H11.7L11.7-5.984A2.573,2.573,0,0,1,12.9-7.852a4.614,4.614,0,0,1,2.7-.758,3.321,3.321,0,0,1,2.32.773,2.306,2.306,0,0,1,.641,2.188l-.523,3.492a6.259,6.259,0,0,0-.078,1.125A5.486,5.486,0,0,0,18.094,0ZM13.961-1.523a2.165,2.165,0,0,0,1.094-.3,2.036,2.036,0,0,0,.758-.691l.18-1.187H14.711a1.718,1.718,0,0,0-1.137.367,1.4,1.4,0,0,0-.52.875.762.762,0,0,0,.172.691A.989.989,0,0,0,13.961-1.523Zm9.781-9-.312,2.07h1.43l-.234,1.6H23.188l-.641,4.3a.9.9,0,0,0,.094.715.644.644,0,0,0,.516.2,2.371,2.371,0,0,0,.316-.02,2.468,2.468,0,0,0,.316-.066L23.727-.07a5.086,5.086,0,0,1-.691.176,4.116,4.116,0,0,1-.715.059,2.108,2.108,0,0,1-1.7-.656,2.509,2.509,0,0,1-.348-2.047l.641-4.312H19.688l.234-1.6h1.234l.313-2.07ZM29.984,0a3.7,3.7,0,0,1-.125-.613,4.615,4.615,0,0,1-.031-.66A3.883,3.883,0,0,1,28.746-.242a2.609,2.609,0,0,1-1.434.406,2.5,2.5,0,0,1-1.922-.691,2.114,2.114,0,0,1-.461-1.855,2.637,2.637,0,0,1,1.234-1.949,5.433,5.433,0,0,1,2.906-.66h1.281l.1-.672a1.182,1.182,0,0,0-.176-.957,1.124,1.124,0,0,0-.91-.324,1.425,1.425,0,0,0-.887.27,1.063,1.063,0,0,0-.418.738h-2.2l-.008-.047a2.573,2.573,0,0,1,1.207-1.867,4.614,4.614,0,0,1,2.7-.758,3.321,3.321,0,0,1,2.32.773,2.306,2.306,0,0,1,.641,2.188L32.2-2.156a6.258,6.258,0,0,0-.078,1.125A5.486,5.486,0,0,0,32.258,0ZM28.125-1.523a2.165,2.165,0,0,0,1.094-.3,2.036,2.036,0,0,0,.758-.691l.18-1.187H28.875a1.718,1.718,0,0,0-1.137.367,1.4,1.4,0,0,0-.52.875.762.762,0,0,0,.172.691A.989.989,0,0,0,28.125-1.523Zm8,1.523H33.844l.3-2h2.281Zm6.438-10.523-.312,2.07h1.43l-.234,1.6H42.008l-.641,4.3a.9.9,0,0,0,.094.715.644.644,0,0,0,.516.2,2.371,2.371,0,0,0,.316-.02,2.468,2.468,0,0,0,.316-.066L42.547-.07a5.086,5.086,0,0,1-.691.176,4.116,4.116,0,0,1-.715.059,2.108,2.108,0,0,1-1.7-.656,2.509,2.509,0,0,1-.348-2.047l.641-4.312H38.508l.234-1.6h1.234l.313-2.07ZM48.8,0a3.7,3.7,0,0,1-.125-.613,4.615,4.615,0,0,1-.031-.66A3.883,3.883,0,0,1,47.566-.242a2.609,2.609,0,0,1-1.434.406,2.5,2.5,0,0,1-1.922-.691,2.114,2.114,0,0,1-.461-1.855,2.637,2.637,0,0,1,1.234-1.949,5.433,5.433,0,0,1,2.906-.66h1.281l.1-.672a1.182,1.182,0,0,0-.176-.957,1.124,1.124,0,0,0-.91-.324,1.425,1.425,0,0,0-.887.27,1.063,1.063,0,0,0-.418.738h-2.2l-.008-.047a2.573,2.573,0,0,1,1.207-1.867,4.614,4.614,0,0,1,2.7-.758,3.321,3.321,0,0,1,2.32.773,2.306,2.306,0,0,1,.641,2.188l-.523,3.492a6.258,6.258,0,0,0-.078,1.125A5.486,5.486,0,0,0,51.078,0ZM46.945-1.523a2.165,2.165,0,0,0,1.094-.3,2.036,2.036,0,0,0,.758-.691l.18-1.187H47.7a1.718,1.718,0,0,0-1.137.367,1.4,1.4,0,0,0-.52.875.762.762,0,0,0,.172.691A.989.989,0,0,0,46.945-1.523Zm13.7-2.469a5.7,5.7,0,0,1-1.3,3.059,3.365,3.365,0,0,1-2.609,1.1A2.207,2.207,0,0,1,55.5-.164a2.266,2.266,0,0,1-.8-.945L54.344,0h-1.93l1.828-12.187h2.273l-.7,4.625a3.293,3.293,0,0,1,1-.777,2.7,2.7,0,0,1,1.211-.27,2.373,2.373,0,0,1,2.238,1.23,5,5,0,0,1,.395,3.223Zm-2.25-.164a4.214,4.214,0,0,0-.066-1.973,1.075,1.075,0,0,0-1.137-.707,1.811,1.811,0,0,0-.922.234,2.062,2.062,0,0,0-.687.656l-.531,3.539a1.185,1.185,0,0,0,.492.594,1.691,1.691,0,0,0,.883.2,1.519,1.519,0,0,0,1.3-.633,4.05,4.05,0,0,0,.641-1.75ZM63.844,0H61.563l1.828-12.187h2.281Zm5.516.164a3.285,3.285,0,0,1-2.742-1.176,3.672,3.672,0,0,1-.648-2.973l.047-.312A5.343,5.343,0,0,1,67.5-7.441a4.111,4.111,0,0,1,3.02-1.168,2.826,2.826,0,0,1,2.426,1.055,3.614,3.614,0,0,1,.52,2.8L73.3-3.578H68.25l-.016.039a1.983,1.983,0,0,0,.3,1.426,1.546,1.546,0,0,0,1.328.527,5.011,5.011,0,0,0,1.32-.16,6.028,6.028,0,0,0,1.188-.473l.406,1.406a5.183,5.183,0,0,1-1.484.7A6.475,6.475,0,0,1,69.359.164Zm.906-7.016a1.459,1.459,0,0,0-1.105.477,2.831,2.831,0,0,0-.652,1.242l.016.047h2.766l.023-.172a1.824,1.824,0,0,0-.121-1.18A.975.975,0,0,0,70.266-6.852ZM27.125,21.07H22.844L21.828,24h-1.57l4.1-11.375h1.32L29.7,24h-1.57Zm-3.836-1.289h3.4L25.031,14.9h-.047ZM32.82,24H31.281V11.813H32.82Zm4.508-10.492v2.039h1.6v1.141h-1.6V21.82a1.149,1.149,0,0,0,.246.836.89.89,0,0,0,.652.242,1.429,1.429,0,0,0,.3-.035,2.2,2.2,0,0,0,.273-.074l.211,1.055a1.36,1.36,0,0,1-.508.23,2.562,2.562,0,0,1-.664.09,1.993,1.993,0,0,1-1.492-.566,2.46,2.46,0,0,1-.555-1.777V16.688H34.445V15.547h1.344V13.508ZM40.219,19.7a4.654,4.654,0,0,1,1.016-3.09,3.764,3.764,0,0,1,5.535,0,4.639,4.639,0,0,1,1.02,3.094v.172a4.631,4.631,0,0,1-1.016,3.094,3.781,3.781,0,0,1-5.535,0,4.623,4.623,0,0,1-1.02-3.09Zm1.539.172a4.009,4.009,0,0,0,.566,2.219,2.046,2.046,0,0,0,3.355,0,3.988,3.988,0,0,0,.57-2.219V19.7a3.976,3.976,0,0,0-.574-2.211,1.882,1.882,0,0,0-1.684-.883,1.856,1.856,0,0,0-1.668.883,4.018,4.018,0,0,0-.566,2.211Zm15.891-2.961-.789-.047a1.762,1.762,0,0,0-1.027.289,1.855,1.855,0,0,0-.645.813V24H53.648V15.547h1.375l.148,1.234a2.934,2.934,0,0,1,.887-1.023,2.073,2.073,0,0,1,1.215-.367,1.9,1.9,0,0,1,.328.027,2.175,2.175,0,0,1,.258.059ZM62.6,24.164A3.576,3.576,0,0,1,59.762,23a4.48,4.48,0,0,1-1.02-3.062v-.344a4.386,4.386,0,0,1,1.051-3.012,3.3,3.3,0,0,1,2.566-1.191A3.067,3.067,0,0,1,64.9,16.445a4.345,4.345,0,0,1,.848,2.8v.813H60.344l-.023.039a3.494,3.494,0,0,0,.563,2.066,1.965,1.965,0,0,0,1.719.793,3.872,3.872,0,0,0,1.371-.223,3.061,3.061,0,0,0,1.012-.613l.6,1a3.7,3.7,0,0,1-1.2.738A4.762,4.762,0,0,1,62.6,24.164ZM62.359,16.6a1.673,1.673,0,0,0-1.332.621,2.938,2.938,0,0,0-.645,1.59l.016.039h3.813v-.125a2.462,2.462,0,0,0-.453-1.523A1.638,1.638,0,0,0,62.359,16.6Zm6.492-1.055.109,1.258a3.069,3.069,0,0,1,1.059-1.043,2.824,2.824,0,0,1,1.449-.371,2.759,2.759,0,0,1,2.117.8,3.515,3.515,0,0,1,.75,2.473V24H72.8V18.7a2.287,2.287,0,0,0-.441-1.586,1.768,1.768,0,0,0-1.348-.469,2.386,2.386,0,0,0-1.207.285,2.072,2.072,0,0,0-.785.8V24H67.477V15.547Zm7.367,4.383a5.641,5.641,0,0,1,.871-3.289,2.807,2.807,0,0,1,2.441-1.25,3.027,3.027,0,0,1,1.316.273,2.7,2.7,0,0,1,.98.8V11.813h1.539V24h-1.18l-.234-1.07a2.743,2.743,0,0,1-1.023.922,3.058,3.058,0,0,1-1.414.313,2.9,2.9,0,0,1-2.422-1.121,4.659,4.659,0,0,1-.875-2.949Zm1.539.164a3.588,3.588,0,0,0,.523,2.051,1.828,1.828,0,0,0,1.625.77,2.039,2.039,0,0,0,1.156-.312,2.334,2.334,0,0,0,.766-.875V17.781a2.37,2.37,0,0,0-.77-.832,2.033,2.033,0,0,0-1.137-.309,1.759,1.759,0,0,0-1.637.914,4.718,4.718,0,0,0-.527,2.375ZM87.328,24H85.789V15.547h1.539Zm0-10.617H85.789v-1.57h1.539Zm3.742,2.164.109,1.109a2.871,2.871,0,0,1,1.051-.934,3.158,3.158,0,0,1,1.48-.332,2.615,2.615,0,0,1,1.449.391,2.363,2.363,0,0,1,.91,1.172,3.162,3.162,0,0,1,1.059-1.145,2.769,2.769,0,0,1,1.527-.418,2.531,2.531,0,0,1,2.039.887,4.051,4.051,0,0,1,.75,2.668V24H99.906V18.93a2.81,2.81,0,0,0-.43-1.77,1.567,1.567,0,0,0-1.281-.52,1.631,1.631,0,0,0-1.277.547,2.381,2.381,0,0,0-.574,1.383V24H94.8V18.93a2.772,2.772,0,0,0-.441-1.738,1.532,1.532,0,0,0-1.27-.551,2.115,2.115,0,0,0-1.156.289,1.867,1.867,0,0,0-.7.813V24H89.7V15.547ZM105.344,24H103.8V15.547h1.539Zm0-10.617H103.8v-1.57h1.539Zm5.867,10.781A3.576,3.576,0,0,1,108.371,23a4.48,4.48,0,0,1-1.02-3.062v-.344a4.386,4.386,0,0,1,1.051-3.012,3.3,3.3,0,0,1,2.566-1.191,3.067,3.067,0,0,1,2.543,1.055,4.345,4.345,0,0,1,.848,2.8v.813h-5.406l-.023.039a3.494,3.494,0,0,0,.563,2.066,1.965,1.965,0,0,0,1.719.793,3.872,3.872,0,0,0,1.371-.223,3.061,3.061,0,0,0,1.012-.613l.6,1a3.7,3.7,0,0,1-1.2.738A4.762,4.762,0,0,1,111.211,24.164Zm-.242-7.562a1.673,1.673,0,0,0-1.332.621,2.938,2.938,0,0,0-.645,1.59l.016.039h3.813v-.125a2.462,2.462,0,0,0-.453-1.523A1.638,1.638,0,0,0,110.969,16.6Zm6.492-1.055.109,1.258a3.069,3.069,0,0,1,1.059-1.043,2.824,2.824,0,0,1,1.449-.371,2.759,2.759,0,0,1,2.117.8,3.515,3.515,0,0,1,.75,2.473V24h-1.539V18.7a2.287,2.287,0,0,0-.441-1.586,1.768,1.768,0,0,0-1.348-.469,2.386,2.386,0,0,0-1.207.285,2.072,2.072,0,0,0-.785.8V24h-1.539V15.547Zm9.859-2.039v2.039h1.6v1.141h-1.6V21.82a1.149,1.149,0,0,0,.246.836.89.89,0,0,0,.652.242,1.429,1.429,0,0,0,.3-.035,2.2,2.2,0,0,0,.273-.074L129,23.844a1.36,1.36,0,0,1-.508.23,2.562,2.562,0,0,1-.664.09,1.993,1.993,0,0,1-1.492-.566,2.46,2.46,0,0,1-.555-1.777V16.688h-1.344V15.547h1.344V13.508Zm2.891,6.188a4.654,4.654,0,0,1,1.016-3.09,3.764,3.764,0,0,1,5.535,0,4.639,4.639,0,0,1,1.02,3.094v.172a4.631,4.631,0,0,1-1.016,3.094,3.781,3.781,0,0,1-5.535,0,4.623,4.623,0,0,1-1.02-3.09Zm1.539.172a4.009,4.009,0,0,0,.566,2.219,2.046,2.046,0,0,0,3.355,0,3.988,3.988,0,0,0,.57-2.219V19.7a3.976,3.976,0,0,0-.574-2.211,1.882,1.882,0,0,0-1.684-.883,1.856,1.856,0,0,0-1.668.883,4.018,4.018,0,0,0-.566,2.211Z" transform="translate(896.033 2982.838)" fill="#12263f"/>
    <g transform="matrix(1, 0, 0, 1, 529.03, 2579)" filter="url(#Trazado_882295)">
      <g id="Trazado_882295-2" data-name="Trazado 882295" transform="translate(346 363)" fill="none">
        <path d="M29,0H150a29,29,0,0,1,29,29V66a29,29,0,0,1-29,29H29A29,29,0,0,1,0,66V29A29,29,0,0,1,29,0Z" stroke="none"/>
        <path d="M 29 3 C 25.48869323730469 3 22.08403015136719 3.687026977539062 18.88055419921875 5.041976928710938 C 15.78482055664062 6.351348876953125 13.00398254394531 8.226448059082031 10.61521911621094 10.61522674560547 C 8.226455688476562 13.00399780273438 6.351348876953125 15.78485107421875 5.041976928710938 18.88054656982422 C 3.687026977539062 22.08402252197266 3 25.48870086669922 3 29 L 3 66 C 3 69.51129913330078 3.687026977539062 72.91597747802734 5.041976928710938 76.11944580078125 C 6.351348876953125 79.21514892578125 8.226455688476562 81.99600219726562 10.61521911621094 84.38477325439453 C 13.00398254394531 86.77355194091797 15.78482055664062 88.64865112304688 18.88055419921875 89.95802307128906 C 22.08403015136719 91.31297302246094 25.48869323730469 92 29 92 L 150 92 C 153.5112915039062 92 156.9159698486328 91.31297302246094 160.1194458007812 89.95802307128906 C 163.2151794433594 88.64865112304688 165.9960327148438 86.77355194091797 168.3847808837891 84.38477325439453 C 170.7735443115234 81.99600219726562 172.6486511230469 79.21514892578125 173.9580230712891 76.11944580078125 C 175.3129730224609 72.91597747802734 176 69.51129913330078 176 66 L 176 29 C 176 25.48870086669922 175.3129730224609 22.08402252197266 173.9580230712891 18.88054656982422 C 172.6486511230469 15.78485107421875 170.7735443115234 13.00399780273438 168.3847808837891 10.61522674560547 C 165.9960327148438 8.226448059082031 163.2151794433594 6.351348876953125 160.1194458007812 5.041976928710938 C 156.9159698486328 3.687026977539062 153.5112915039062 3 150 3 L 29 3 M 29 0 L 150 0 C 166.0162811279297 0 179 12.98374938964844 179 29 L 179 66 C 179 82.01625061035156 166.0162811279297 95 150 95 L 29 95 C 12.98371887207031 95 0 82.01625061035156 0 66 L 0 29 C 0 12.98374938964844 12.98371887207031 0 29 0 Z" stroke="none" fill="#eaf5e9"/>
      </g>
    </g>
    <path id="Trazado_879940" data-name="Trazado 879940" d="M4281.747,1899.406a5.615,5.615,0,1,0-5.616,5.772A5.6,5.6,0,0,0,4281.747,1899.406Zm-2.128-1c-.246.252-.5.5-.747.748-.152.152-.308.3-.462.452a.215.215,0,0,1-.081.082,8.47,8.47,0,0,1-.607.6.036.036,0,0,1-.021.009.15.15,0,0,1-.107.108.038.038,0,0,1-.009.021h0a8.4,8.4,0,0,1-.6.607h0a.167.167,0,0,1-.1.087.035.035,0,0,1-.009.021h0a7.8,7.8,0,0,1-.63.63l-.084.084a9.609,9.609,0,0,1-.69.7c-.161.151-.38.107-.55-.085a1.508,1.508,0,0,1-.236-.236h0l-.478-.479a1.641,1.641,0,0,1-.237-.237h0l-.505-.5a1.315,1.315,0,0,1-.21-.209l-.026-.027h0l-.478-.479-.026-.027c-.279-.236-.279-.453,0-.689l.026-.027a3.09,3.09,0,0,1,.476-.455c.012-.024.034-.021.055-.018a.4.4,0,0,1,.424.134c.089.1.182.189.273.283l1.108,1.1c.139.138.139.139.285.017l.371-.371h0a3.461,3.461,0,0,1,.37-.37l.318-.318.027-.026h0l.4-.4h0l.319-.316a3.9,3.9,0,0,1,.372-.371,3.809,3.809,0,0,1,.37-.37,3.949,3.949,0,0,1,.37-.371c.12-.123.235-.251.36-.367a.353.353,0,0,1,.491.008c.175.167.347.338.514.513A.351.351,0,0,1,4279.619,1898.41Z" transform="translate(-3374.487 1102.197)" fill="#b0dcae"/>
    <g data-type="innerShadowGroup">
      <g transform="matrix(1, 0, 0, 1, 529.03, 2579)" filter="url(#Trazado_882296)">
        <path id="Trazado_882296-3" data-name="Trazado 882296" d="M29,0H97a29,29,0,0,1,29,29V59A29,29,0,0,1,97,88H29A29,29,0,0,1,0,59V29A29,29,0,0,1,29,0Z" transform="translate(301 6)" fill="#eaf5e9"/>
      </g>
      <g transform="matrix(1, 0, 0, 1, 529.03, 2579)" filter="url(#Trazado_882296-2)">
        <path id="Trazado_882296-4" data-name="Trazado 882296" d="M29,0H97a29,29,0,0,1,29,29V59A29,29,0,0,1,97,88H29A29,29,0,0,1,0,59V29A29,29,0,0,1,29,0Z" transform="translate(301 6)" fill="#fff"/>
      </g>
    </g>
    <path id="Trazado_882297" data-name="Trazado 882297" d="M-1.929-5.115-2.694,0H-5.26l1.916-12.8h4.43a4.7,4.7,0,0,1,3.23,1.006,2.9,2.9,0,0,1,.866,2.773A3.307,3.307,0,0,1,4.4-7.277,4.406,4.406,0,0,1,2.685-6.144,2.374,2.374,0,0,1,4.14-5.01a3.094,3.094,0,0,1,.233,1.9l-.141.94A4.686,4.686,0,0,0,4.21-1.042a1.287,1.287,0,0,0,.365.857L4.548,0H1.9A1.239,1.239,0,0,1,1.6-.918a8.379,8.379,0,0,1,.079-1.27l.141-.905A1.823,1.823,0,0,0,1.525-4.6,1.766,1.766,0,0,0,.11-5.115Zm.3-1.978H.189a2.691,2.691,0,0,0,1.652-.461A2,2,0,0,0,2.6-8.9a1.669,1.669,0,0,0-.316-1.411A1.9,1.9,0,0,0,.8-10.819H-1.068Z" transform="translate(893.033 2636)" fill="#12263f"/>
  </g>
</svg>
